<svg width="30" height="34" viewBox="0 0 30 34" fill="none" xmlns="http://www.w3.org/2000/svg">
<path d="M2.4 0C1.074 0 0 1.08679 0 2.42857V29.1429C0 30.4846 1.074 31.5714 2.4 31.5714H12.6211C11.4715 29.835 10.8 27.7476 10.8 25.5C10.8 19.4638 15.6348 14.5714 21.6 14.5714C22.4256 14.5714 23.2272 14.6728 24 14.8513V9.10714C24 8.78536 23.874 8.47689 23.6484 8.2486L15.8484 0.355748C15.6228 0.127462 15.318 0 15 0H2.4ZM14.4 2.31236L21.7148 9.71429H15.6C14.9376 9.71429 14.4 9.17029 14.4 8.5V2.31236ZM21.6 17C16.9608 17 13.2 20.8056 13.2 25.5C13.2 30.1944 16.9608 34 21.6 34C26.2392 34 30 30.1944 30 25.5C30 20.8056 26.2392 17 21.6 17ZM21.6 20.6429C22.2624 20.6429 22.8 21.1856 22.8 21.8571V24.2857H25.2C25.8624 24.2857 26.4 24.8285 26.4 25.5C26.4 26.1715 25.8624 26.7143 25.2 26.7143H22.8V29.1429C22.8 29.8144 22.2624 30.3571 21.6 30.3571C20.9376 30.3571 20.4 29.8144 20.4 29.1429V26.7143H18C17.3376 26.7143 16.8 26.1715 16.8 25.5C16.8 24.8285 17.3376 24.2857 18 24.2857H20.4V21.8571C20.4 21.1856 20.9376 20.6429 21.6 20.6429Z" fill="#535353"/>
</svg>
