<svg width="42" height="42" viewBox="0 0 42 42" fill="none" xmlns="http://www.w3.org/2000/svg">
<circle cx="21" cy="21" r="21" fill="#535353"/>
<path fill-rule="evenodd" clip-rule="evenodd" d="M9.27419 16.7449L11.0993 27.4174C11.3502 28.3891 11.8521 28.875 13.1067 28.875H30.1693C30.6711 28.875 31.4239 28.6321 31.6748 27.4174C31.7076 27.2584 31.7851 26.3685 31.8924 25.1359C32.1066 22.6753 32.4397 18.849 32.774 16.7449C32.9943 15.3587 32.2722 14.144 30.5158 14.7849L26.1545 17.4572L22.8926 11.1408C22.3907 10.4121 21.1362 10.1692 20.3833 11.141C19.553 12.2129 18.3568 14.1933 17.4198 15.7446C16.9978 16.4432 16.6284 17.0549 16.3686 17.4572L11.6012 14.7849C10.0956 14.0561 8.84103 15.0279 9.27419 16.7449ZM10.6931 16.0875L12.4495 27.5053H30.0405L31.2685 16.0875L25.2464 19.4885L21.4826 11.9576L16.7151 19.4885L10.6931 16.0875Z" fill="white"/>
</svg>
