<svg width="30" height="34" viewBox="0 0 30 34" fill="none" xmlns="http://www.w3.org/2000/svg">
<path d="M15 0C13.4951 0 12.2763 1.2172 12.2763 2.72V3.07594C7.58017 4.28577 4.10502 8.5327 4.10502 13.6V16.8566C4.10502 19.019 3.6603 21.1439 2.83092 23.12H27.1691C26.3397 21.1453 25.895 19.019 25.895 16.8566V13.6C25.895 8.5327 22.4198 4.28577 17.7237 3.07594V2.72C17.7237 1.2172 16.5049 0 15 0ZM1.38127 25.84C1.20081 25.8375 1.02163 25.8707 0.854166 25.938C0.686699 26.0052 0.534277 26.1049 0.405757 26.2315C0.277238 26.358 0.175184 26.5088 0.105527 26.6751C0.0358704 26.8413 0 27.0198 0 27.2C0 27.3802 0.0358704 27.5587 0.105527 27.7249C0.175184 27.8912 0.277238 28.042 0.405757 28.1685C0.534277 28.2951 0.686699 28.3948 0.854166 28.462C1.02163 28.5293 1.20081 28.5625 1.38127 28.56H11.1538C10.9972 28.9965 10.9162 29.4564 10.9144 29.92C10.9144 31.0021 11.3448 32.0398 12.111 32.805C12.8772 33.5701 13.9164 34 15 34C16.0836 34 17.1228 33.5701 17.889 32.805C18.6552 32.0398 19.0856 31.0021 19.0856 29.92C19.0846 29.4565 19.0046 28.9966 18.8489 28.56H28.6187C28.7992 28.5625 28.9784 28.5293 29.1458 28.462C29.3133 28.3948 29.4657 28.2951 29.5942 28.1685C29.7228 28.042 29.8248 27.8912 29.8945 27.7249C29.9641 27.5587 30 27.3802 30 27.2C30 27.0198 29.9641 26.8413 29.8945 26.6751C29.8248 26.5088 29.7228 26.358 29.5942 26.2315C29.4657 26.1049 29.3133 26.0052 29.1458 25.938C28.9784 25.8707 28.7992 25.8375 28.6187 25.84H15H1.38127Z" fill="#535353"/>
</svg>
