<svg id="Capa_1" enable-background="new 0 0 511.99 511.99" height="512" viewBox="0 0 511.99 511.99" width="512" xmlns="http://www.w3.org/2000/svg"><g><g><path d="m42.621 504.495 158.24-158.24-4.619-46.193-45.038-3.464-108.583 108.583c-27.424 27.425-27.424 71.889 0 99.314z" fill="#c7cad8"/><path d="m47.718 499.404-5.096 5.096c-27.426-27.426-27.426-71.893 0-99.319l108.583-108.583 45.032 3.464 2.04 20.411-25.134-1.936-108.583 108.583c-19.551 19.551-25.16 47.767-16.842 72.284z" fill="#a5a8bd"/><path d="m204.001 104.65h179.647v197.969h-179.647z" fill="#e696a6" transform="matrix(.707 .707 -.707 .707 230.051 -148.122)"/><path d="m251.123 124.169h179.647v64.688h-179.647z" fill="#e17888" transform="matrix(.707 .707 -.707 .707 210.532 -195.244)"/><path d="m222.537 59.901h53.078v197.969h-53.078z" fill="#e17888" transform="matrix(.707 .707 -.707 .707 185.302 -129.587)"/><g><path d="m403.532 220.957-127.03-127.03c-19.771-19.771-19.771-51.827 0-71.599 19.771-19.771 51.827-19.771 71.599 0l127.03 127.03c19.771 19.771 19.771 51.827 0 71.599-19.772 19.771-51.828 19.771-71.599 0z" fill="#e696a6"/></g><g><path d="m331.788 149.221-55.294-55.294c-19.768-19.768-19.768-51.821.009-71.598 9.889-9.889 22.833-14.829 35.795-14.82 12.953 0 25.915 4.94 35.795 14.82l55.294 55.294c-9.889-9.889-22.842-14.82-35.795-14.82s-25.906 4.931-35.795 14.82c-19.778 19.777-19.778 51.83-.009 71.598z" fill="#e17888"/></g><g><path d="m262.645 408.037-173.223-173.222c-19.771-19.771-19.771-51.827 0-71.599 19.771-19.771 51.827-19.771 71.599 0l173.222 173.222c19.771 19.771 19.771 51.827 0 71.599-19.771 19.772-51.827 19.772-71.598 0z" fill="#e696a6"/></g><g><path d="m157.556 302.94-68.134-68.134c-19.768-19.768-19.768-51.821 0-71.59 9.889-9.889 22.85-14.828 35.804-14.829 12.953 0 25.906 4.931 35.795 14.82l68.134 68.134c-9.889-9.889-22.842-14.82-35.795-14.82s-25.915 4.94-35.804 14.828c-19.768 19.77-19.768 51.823 0 71.591z" fill="#e17888"/></g></g><path d="m480.439 144.057-9.85-9.85c-2.929-2.929-7.678-2.929-10.606 0-2.929 2.929-2.929 7.678 0 10.606l9.85 9.85c16.747 16.747 16.816 43.954.206 60.787-.073.067-.145.136-.215.207-16.813 16.813-44.17 16.814-60.984 0l-127.03-127.03c-8.145-8.145-12.631-18.976-12.631-30.497s4.486-22.352 12.634-30.5c8.135-8.144 18.965-12.63 30.492-12.63 11.52 0 22.35 4.487 30.497 12.633l95.96 95.97c1.407 1.407 3.314 2.197 5.304 2.197h.01c4.142 0 7.495-3.358 7.495-7.5 0-2.128-.888-4.049-2.312-5.414l-95.85-95.859c-10.98-10.98-25.577-17.027-41.104-17.027-15.537 0-30.136 6.048-41.103 17.027-20.865 20.865-22.505 53.768-4.952 76.546l-82.133 82.133-17.793-17.793c-10.979-10.979-25.576-17.025-41.103-17.025s-30.124 6.046-41.103 17.025-17.025 25.576-17.025 41.102c0 15.527 6.046 30.124 17.025 41.103l56.481 56.481-76.518 76.518c-2.929 2.929-2.929 7.678 0 10.606 2.929 2.929 7.678 2.929 10.606 0l76.518-76.517 3.882 3.881 35.167 35.167-147.318 147.319c-8.676-11.003-13.383-24.507-13.383-38.734 0-16.753 6.526-32.506 18.376-44.355l5.55-5.55c2.929-2.929 2.928-7.678 0-10.607-2.93-2.929-7.678-2.928-10.607 0l-5.549 5.55c-14.683 14.683-22.77 34.202-22.77 54.962s8.087 40.277 22.771 54.956c1.464 1.464 3.383 2.196 5.302 2.196s3.839-.732 5.303-2.197l152.932-152.933 56.48 56.48c10.979 10.979 25.576 17.025 41.103 17.025s30.124-6.046 41.103-17.025 17.025-25.576 17.025-41.103-6.046-30.124-17.025-41.103l-17.793-17.793 82.127-82.127c10.117 7.821 22.454 12.073 35.45 12.073 15.413 0 29.91-5.959 40.86-16.788.084-.077.167-.156.248-.237 22.664-22.664 22.664-59.542 0-82.206zm-151.499 258.677c-16.815 16.815-44.177 16.815-60.992 0l-173.223-173.223c-8.146-8.146-12.632-18.976-12.632-30.496s4.486-22.35 12.632-30.496c16.815-16.815 44.177-16.815 60.992 0l173.223 173.223c16.815 16.815 16.815 44.176 0 60.992zm-17.793-99.998-116.424-116.424 81.779-81.779 116.423 116.423z"/></g></svg>