<svg width="30" height="30" viewBox="0 0 30 30" fill="none" xmlns="http://www.w3.org/2000/svg">
<path d="M13.3333 0C8.62 0 6.66667 3.02355 6.66667 6.66715C6.66667 7.8939 7.2526 9.12609 7.2526 9.12609C7.01705 9.26166 6.62965 9.69199 6.72743 10.4565C6.90965 11.8821 7.52767 12.2452 7.92101 12.2752C8.07101 13.6053 9.5 15.3067 10 15.5545V17.7769C8.88889 21.1105 0 18.8881 0 26.6664H13.2747C12.607 25.3263 12.2222 23.8207 12.2222 22.2217C12.2222 17.9836 14.8628 14.3689 18.5851 12.9133C18.6617 12.6955 18.7223 12.4808 18.7457 12.2752C19.139 12.2452 19.757 11.8821 19.9392 10.4565C20.037 9.69088 19.6496 9.26166 19.4141 9.12609C19.4141 9.12609 20 8.0128 20 6.66715C20 3.96918 18.9411 1.66679 16.6667 1.66679C16.6667 1.66679 15.8767 0 13.3333 0ZM22.2222 14.4433C17.9267 14.4433 14.4444 17.9258 14.4444 22.2217C14.4444 26.5175 17.9267 30 22.2222 30C26.5178 30 30 26.5175 30 22.2217C30 17.9258 26.5178 14.4433 22.2222 14.4433ZM25.5556 18.8881C25.8397 18.8881 26.1239 18.9964 26.3411 19.2136C26.7756 19.6481 26.7756 20.3504 26.3411 20.7849L21.8967 25.2297C21.68 25.4464 21.3956 25.5552 21.1111 25.5552C20.8267 25.5552 20.5422 25.4464 20.3255 25.2297L18.1033 23.0073C17.6689 22.5728 17.6689 21.8705 18.1033 21.436C18.5377 21.0015 19.24 21.0015 19.6745 21.436L21.1111 22.8727L24.77 19.2136C24.9872 18.9964 25.2714 18.8881 25.5556 18.8881Z" fill="#FF5A5A"/>
</svg>
