<svg width="30" height="30" viewBox="0 0 30 30" fill="none" xmlns="http://www.w3.org/2000/svg">
<path d="M15 0C6.75 0 0 6.75 0 15C0 23.25 6.75 30 15 30C23.25 30 30 23.25 30 15C30 6.75 23.25 0 15 0ZM20.9138 22.5C20.6388 22.5 20.5012 22.3625 20.2262 22.225C18.1637 20.9862 15.5513 20.3 12.8013 20.3C11.2887 20.3 9.63875 20.575 8.26375 20.85C7.98875 20.85 7.71375 20.9875 7.57625 20.9875C7.02625 20.9875 6.61375 20.575 6.61375 20.025C6.61375 19.475 6.88875 19.0625 7.43875 19.0625C9.22625 18.65 11.015 18.375 12.94 18.375C16.1025 18.375 18.99 19.2 21.465 20.575C21.74 20.85 22.015 20.9875 22.015 21.5375C21.7375 22.225 21.325 22.5 20.9138 22.5ZM22.425 18.6512C22.15 18.6512 21.875 18.5138 21.6 18.3763C19.2625 16.8638 15.9612 16.0387 12.3875 16.0387C10.6 16.0387 8.94875 16.3137 7.7125 16.5887C7.4375 16.7262 7.3 16.7262 7.025 16.7262C6.3375 16.7262 5.92375 16.1763 5.92375 15.625C5.92375 14.9375 6.19875 14.6625 6.88625 14.3862C8.53625 13.9738 10.1875 13.5612 12.525 13.5612C16.375 13.5612 19.95 14.5237 22.9762 16.3112C23.3888 16.5863 23.6637 16.9988 23.6637 17.4125C23.525 18.1 23.1138 18.6512 22.425 18.6512ZM24.2125 14.25C23.9375 14.25 23.8 14.1125 23.3875 13.975C20.6375 12.4625 16.65 11.5 12.8 11.5C10.875 11.5 8.8125 11.775 7.02375 12.1875C6.74875 12.1875 6.61125 12.325 6.19875 12.325C5.37375 12.4637 4.82375 11.775 4.82375 10.9513C4.82375 10.1275 5.23625 9.7125 5.78625 9.57625C7.9875 9.025 10.325 8.75 12.8 8.75C17.0625 8.75 21.4625 9.7125 24.9012 11.5C25.3137 11.775 25.7262 12.1875 25.7262 12.875C25.5887 13.7 25.0375 14.25 24.2125 14.25Z" fill="#1DB954"/>
</svg>
