<svg width="26" height="34" viewBox="0 0 26 34" fill="none" xmlns="http://www.w3.org/2000/svg">
<path d="M25.6191 8.88315L17.1691 0.383154C16.9247 0.137308 16.5945 0 16.25 0H2.6C1.1635 0 0 1.17038 0 2.61538V31.3846C0 32.8296 1.1635 34 2.6 34H23.4C24.8365 34 26 32.8296 26 31.3846V9.80769C26 9.46115 25.8635 9.129 25.6191 8.88315ZM5.85 17C4.7736 17 3.9 16.1212 3.9 15.0385C3.9 13.9557 4.7736 13.0769 5.85 13.0769C6.9264 13.0769 7.8 13.9557 7.8 15.0385C7.8 16.1212 6.9264 17 5.85 17ZM20.8 17H11.7C10.9824 17 10.4 16.4142 10.4 15.6923C10.4 14.9705 10.9824 14.3846 11.7 14.3846H20.8C21.5176 14.3846 22.1 14.9705 22.1 15.6923C22.1 16.4142 21.5176 17 20.8 17ZM5.85 22.2308C4.7736 22.2308 3.9 21.352 3.9 20.2692C3.9 19.1865 4.7736 18.3077 5.85 18.3077C6.9264 18.3077 7.8 19.1865 7.8 20.2692C7.8 21.352 6.9264 22.2308 5.85 22.2308ZM20.8 22.2308H11.7C10.9824 22.2308 10.4 21.6449 10.4 20.9231C10.4 20.2012 10.9824 19.6154 11.7 19.6154H20.8C21.5176 19.6154 22.1 20.2012 22.1 20.9231C22.1 21.6449 21.5176 22.2308 20.8 22.2308ZM5.85 27.4615C4.7736 27.4615 3.9 26.5828 3.9 25.5C3.9 24.4172 4.7736 23.5385 5.85 23.5385C6.9264 23.5385 7.8 24.4172 7.8 25.5C7.8 26.5828 6.9264 27.4615 5.85 27.4615ZM20.8 27.4615H11.7C10.9824 27.4615 10.4 26.8757 10.4 26.1538C10.4 25.432 10.9824 24.8462 11.7 24.8462H20.8C21.5176 24.8462 22.1 25.432 22.1 26.1538C22.1 26.8757 21.5176 27.4615 20.8 27.4615ZM16.9 10.4615C16.1824 10.4615 15.6 9.87569 15.6 9.15385V2.48985L23.5248 10.4615H16.9Z" fill="#535353"/>
</svg>
