<svg width="36" height="23" viewBox="0 0 36 23" fill="none" xmlns="http://www.w3.org/2000/svg">
<path d="M18 0C14.1816 0 12.6 2.47068 12.6 5.44737C12.6 6.44968 13.0758 7.45703 13.0758 7.45703C12.885 7.5684 12.5677 7.92235 12.6469 8.54698C12.7945 9.7115 13.2956 10.0052 13.6148 10.0294C13.736 11.1165 14.8956 12.5084 15.3 12.7105V14.3348C14.4 17.0585 7.2 16.6447 7.2 23H28.8C28.8 16.6447 21.6 17.0585 20.7 14.3348V12.7105C21.1056 12.5084 22.264 11.1165 22.3852 10.0294C22.7044 10.0052 23.2055 9.7115 23.3531 8.54698C23.4323 7.92114 23.115 7.5684 22.9242 7.45703C22.9242 7.45703 23.4 6.54774 23.4 5.44737C23.4 3.243 22.542 1.36184 20.7 1.36184C20.7 1.36184 20.0604 0 18 0ZM27 2.41869C26.3856 2.41869 25.8628 2.53079 25.3828 2.69058C25.6456 3.51253 25.8 4.42932 25.8 5.44737C25.8 6.09137 25.6999 6.68178 25.5727 7.17568C25.7467 7.69499 25.8064 8.26608 25.732 8.85197C25.5628 10.1848 25.0499 11.0906 24.4055 11.6608C24.2183 12.1184 23.9619 12.5519 23.6859 12.9659C24.0267 13.6716 24.5256 14.2999 24.75 14.427V14.4412C27.1944 15.5973 31.2 17.5405 31.2 23H36C36 16.9982 30 17.86 29.25 15.2876V14.4247C29.5872 14.2334 30.5531 12.919 30.6539 11.8925C30.9191 11.8695 31.3378 11.5932 31.4602 10.4928C31.5262 9.90207 31.2623 9.56965 31.1039 9.46433C31.1039 9.46433 31.5 8.60321 31.5 7.56579C31.5 5.48368 30.7848 3.70724 29.25 3.70724C29.25 3.70724 28.7172 2.41869 27 2.41869ZM9 2.42105C7.2828 2.42105 6.75 3.70724 6.75 3.70724C5.2152 3.70724 4.5 5.48605 4.5 7.56815C4.5 8.60679 4.89609 9.46433 4.89609 9.46433C4.73649 9.56844 4.47384 9.90207 4.53984 10.4928C4.66224 11.5932 5.08089 11.8718 5.34609 11.8948C5.44689 12.9214 6.4128 14.2358 6.75 14.427V15.2876C6 17.8588 0 16.9982 0 23H4.8C4.8 17.5405 8.8056 15.5985 11.25 14.4412V14.4247C11.4744 14.2975 11.9733 13.6728 12.3141 12.9659C12.0381 12.5519 11.7817 12.116 11.5945 11.6584C10.9501 11.0895 10.436 10.1836 10.268 8.85197C10.1924 8.25882 10.2544 7.67856 10.432 7.1544C10.3024 6.65687 10.2 6.06595 10.2 5.44737C10.2 4.44626 10.3405 3.52596 10.5961 2.68586C10.1221 2.5297 9.606 2.42105 9 2.42105Z" fill="#535353"/>
</svg>
