<svg xmlns="http://www.w3.org/2000/svg" width="60" height="49" viewBox="0 0 60 49" version="1.1">
	<path d="M 29.371 0.765 C 28.750 1.169, 26.086 5.100, 23.452 9.500 C 20.818 13.900, 18.548 17.654, 18.406 17.842 C 18.265 18.030, 15.392 16.567, 12.021 14.592 C 5.549 10.798, 1.310 10.028, 0.371 12.475 C -0.384 14.443, 4.803 45.058, 6.171 46.706 C 7.791 48.658, 54.280 48.573, 55.904 46.615 C 56.537 45.853, 57.516 39.891, 58.080 33.365 C 58.645 26.839, 59.533 20.195, 60.054 18.601 C 61.357 14.609, 61.319 9.959, 60 12 C 59.354 13, 59.026 13.083, 59.015 12.250 C 58.995 10.605, 54.970 10.649, 52.473 12.321 C 51.388 13.047, 48.830 14.648, 46.789 15.878 L 43.078 18.115 38.529 9.058 C 34.072 0.183, 32.481 -1.258, 29.371 0.765 M 25.046 14.003 C 22.046 18.952, 19.121 22.984, 18.546 22.965 C 17.971 22.945, 14.596 21.161, 11.048 19 C 7.499 16.840, 4.447 15.220, 4.265 15.401 C 3.846 15.820, 8.002 43.194, 8.642 44.229 C 8.904 44.653, 18.991 45, 31.059 45 C 47.940 45, 53.002 44.712, 53.010 43.750 C 53.015 43.063, 53.693 36.466, 54.517 29.091 C 55.341 21.716, 55.887 15.554, 55.731 15.398 C 55.575 15.241, 52.388 16.888, 48.650 19.057 C 44.911 21.226, 41.528 23, 41.132 23 C 40.736 23, 38.426 18.950, 36 14 C 33.574 9.050, 31.344 5.002, 31.044 5.003 C 30.745 5.005, 28.046 9.055, 25.046 14.003 M 0.232 15 C 0.232 16.925, 0.438 17.712, 0.689 16.750 C 0.941 15.787, 0.941 14.213, 0.689 13.250 C 0.438 12.287, 0.232 13.075, 0.232 15" stroke="none" fill="black" fill-rule="evenodd"/>
</svg>