<svg width="388" height="252" viewBox="0 0 388 252" fill="none" xmlns="http://www.w3.org/2000/svg">
<rect width="177" height="96" rx="20" fill="#3FA695"/>
<path d="M298.877 252C332.819 252 360.334 247.603 360.334 242.18C360.334 236.757 332.819 232.36 298.877 232.36C264.936 232.36 237.421 236.757 237.421 242.18C237.421 247.603 264.936 252 298.877 252Z" fill="#EFDFB9"/>
<path d="M335.545 185.715C330.768 201.608 341.355 237.012 341.355 237.012C341.355 237.012 369.759 213.496 374.665 197.603C379.442 181.71 374.665 166.076 363.82 162.845C352.975 159.486 340.322 169.693 335.545 185.715Z" fill="#3FA695"/>
<path d="M215.731 193.339C205.789 179.901 203.982 143.076 203.982 143.076C203.982 143.076 238.712 155.61 248.525 169.047C258.466 182.485 259.112 198.766 250.074 205.485C241.036 212.203 225.672 206.777 215.731 193.339Z" fill="#3FA695"/>
<path d="M231.06 128.447C231.06 128.059 231.06 127.8 230.931 127.413H231.189C234.029 111.649 263.337 99.2452 298.842 99.2452C334.477 99.2452 363.656 111.649 366.496 127.413H366.754C366.754 127.8 366.754 128.059 366.625 128.447C366.625 128.963 366.754 129.48 366.754 129.997C366.754 131.16 366.625 132.323 366.367 133.486C365.205 152.092 364.689 173.024 355.78 192.405C334.993 237.499 305.814 239.308 298.842 239.05C291.871 239.308 262.692 237.499 241.905 192.405C232.996 173.024 232.48 152.092 231.318 133.486C231.06 132.323 230.931 131.16 230.931 129.997C230.931 129.48 230.931 128.963 231.06 128.447Z" fill="#8FD2C7"/>
<path d="M260.274 110.128C280.673 110.128 297.328 125.375 298.877 144.627C300.427 125.375 317.082 110.128 337.481 110.128C358.914 110.128 376.214 126.796 376.214 147.469C376.214 168.143 358.914 184.811 337.481 184.811C317.082 184.811 300.427 169.564 298.877 150.312C297.586 166.98 284.934 180.676 268.278 184.036C265.696 184.553 262.985 184.811 260.274 184.811C238.841 184.811 221.541 168.143 221.541 147.469C221.541 126.796 238.97 110.128 260.274 110.128Z" fill="#67C5B6"/>
<path d="M279.898 204.322C282.222 204.322 284.417 203.288 286.095 201.737C286.612 201.221 287.257 202.125 286.87 202.771C285.192 205.226 282.739 206.906 279.898 206.906C277.058 206.906 274.605 205.355 272.926 202.771C272.539 202.125 273.184 201.221 273.701 201.737C275.379 203.417 277.574 204.322 279.898 204.322Z" fill="#B6E1DD"/>
<path d="M317.857 204.322C320.181 204.322 322.376 203.288 324.054 201.737C324.571 201.221 325.216 202.125 324.829 202.771C323.15 205.226 320.697 206.906 317.857 206.906C315.017 206.906 312.563 205.355 310.885 202.771C310.498 202.125 311.143 201.221 311.66 201.737C313.467 203.417 315.533 204.322 317.857 204.322Z" fill="#B6E1DD"/>
<path d="M298.877 204.322C301.201 204.322 303.396 203.288 305.075 201.737C305.591 201.221 306.237 202.125 305.849 202.771C304.171 205.226 301.718 206.906 298.877 206.906C296.037 206.906 293.584 205.355 291.906 202.771C291.518 202.125 292.164 201.221 292.68 201.737C294.488 203.417 296.553 204.322 298.877 204.322Z" fill="#B6E1DD"/>
<path d="M289.711 216.984C292.035 216.984 294.23 215.95 295.908 214.4C296.424 213.883 297.07 214.788 296.683 215.434C295.004 217.889 292.551 219.568 289.711 219.568C286.87 219.568 284.417 218.018 282.739 215.434C282.351 214.788 282.997 213.883 283.513 214.4C285.192 215.95 287.387 216.984 289.711 216.984Z" fill="#B6E1DD"/>
<path d="M308.69 216.984C311.014 216.984 313.209 215.95 314.887 214.4C315.403 213.883 316.049 214.788 315.662 215.434C313.983 217.889 311.53 219.568 308.69 219.568C305.849 219.568 303.396 218.018 301.718 215.434C301.33 214.788 301.976 213.883 302.492 214.4C304.171 215.95 306.366 216.984 308.69 216.984Z" fill="#B6E1DD"/>
<path d="M319.406 238.433C319.406 240.242 320.439 242.826 321.343 244.893C322.117 246.702 323.667 246.702 324.441 244.893C325.345 242.826 326.378 240.242 326.378 238.433C326.378 235.074 324.829 232.36 322.892 232.36C320.955 232.231 319.406 234.944 319.406 238.433Z" fill="#F3951F"/>
<path d="M311.789 238.433C311.789 240.242 312.821 242.826 313.725 244.893C314.5 246.702 316.049 246.702 316.824 244.893C317.728 242.826 318.761 240.242 318.761 238.433C318.761 235.074 317.211 232.36 315.275 232.36C313.338 232.231 311.789 234.944 311.789 238.433Z" fill="#F3951F"/>
<path d="M304.171 238.433C304.171 240.242 305.204 242.826 306.108 244.893C306.882 246.702 308.432 246.702 309.206 244.893C310.11 242.826 311.143 240.242 311.143 238.433C311.143 235.074 309.594 232.36 307.657 232.36C305.72 232.231 304.171 234.944 304.171 238.433Z" fill="#F3951F"/>
<path d="M286.741 238.433C286.741 240.242 287.774 242.826 288.678 244.893C289.452 246.702 291.002 246.702 291.776 244.893C292.68 242.826 293.713 240.242 293.713 238.433C293.713 235.074 292.164 232.36 290.227 232.36C288.29 232.231 286.741 234.944 286.741 238.433Z" fill="#F3951F"/>
<path d="M279.124 238.433C279.124 240.242 280.157 242.826 281.06 244.893C281.835 246.702 283.384 246.702 284.159 244.893C285.063 242.826 286.096 240.242 286.096 238.433C286.096 235.074 284.546 232.36 282.61 232.36C280.673 232.231 279.124 234.944 279.124 238.433Z" fill="#F3951F"/>
<path d="M271.377 238.433C271.377 240.242 272.41 242.826 273.314 244.893C274.088 246.702 275.638 246.702 276.412 244.893C277.316 242.826 278.349 240.242 278.349 238.433C278.349 235.074 276.8 232.36 274.863 232.36C273.055 232.231 271.377 234.944 271.377 238.433Z" fill="#F3951F"/>
<path d="M226.447 94.6227C226.447 94.6227 230.191 95.1395 231.611 87.9038C231.611 87.9038 237.163 96.9484 251.752 99.2742C266.084 101.6 293.455 99.9203 293.455 99.9203H297.328H300.298H304.171C304.171 99.9203 331.542 101.6 345.874 99.2742C360.463 96.9484 366.015 87.9038 366.015 87.9038C367.435 95.1395 371.179 94.6227 371.179 94.6227C376.343 93.0721 387.576 81.5725 387.576 81.5725C382.024 98.3697 370.792 112.454 336.965 125.762C318.889 132.869 305.204 141.138 300.169 144.368L298.619 145.402L297.07 144.368C292.035 141.138 278.478 132.869 260.274 125.762C226.705 112.324 215.602 98.3697 210.05 81.5725C210.05 81.5725 221.153 93.0721 226.447 94.6227Z" fill="#3FA695"/>
<path d="M279.898 114.004C282.222 114.004 284.417 112.97 286.095 111.42C286.612 110.903 287.257 111.808 286.87 112.454C285.192 114.909 282.739 116.588 279.898 116.588C277.058 116.588 274.605 115.038 272.926 112.454C272.539 111.808 273.184 110.903 273.701 111.42C275.379 112.97 277.574 114.004 279.898 114.004Z" fill="#3D8E7E"/>
<path d="M317.857 114.004C320.181 114.004 322.376 112.97 324.054 111.42C324.571 110.903 325.216 111.808 324.829 112.454C323.15 114.909 320.697 116.588 317.857 116.588C315.017 116.588 312.563 115.038 310.885 112.454C310.498 111.808 311.143 110.903 311.66 111.42C313.467 112.97 315.533 114.004 317.857 114.004Z" fill="#3D8E7E"/>
<path d="M298.877 114.004C301.201 114.004 303.396 112.97 305.075 111.42C305.591 110.903 306.237 111.808 305.849 112.454C304.171 114.909 301.718 116.588 298.877 116.588C296.037 116.588 293.584 115.038 291.906 112.454C291.518 111.808 292.164 110.903 292.68 111.42C294.488 112.97 296.553 114.004 298.877 114.004Z" fill="#3D8E7E"/>
<path d="M289.711 126.537C292.035 126.537 294.23 125.504 295.908 123.953C296.424 123.436 297.07 124.341 296.683 124.987C295.004 127.442 292.551 129.122 289.711 129.122C286.87 129.122 284.417 127.571 282.739 124.987C282.351 124.341 282.997 123.436 283.513 123.953C285.192 125.504 287.387 126.537 289.711 126.537Z" fill="#3D8E7E"/>
<path d="M308.69 126.537C311.014 126.537 313.209 125.504 314.887 123.953C315.403 123.436 316.049 124.341 315.662 124.987C313.983 127.442 311.53 129.122 308.69 129.122C305.849 129.122 303.396 127.571 301.718 124.987C301.33 124.341 301.976 123.436 302.492 123.953C304.171 125.504 306.366 126.537 308.69 126.537Z" fill="#3D8E7E"/>
<path d="M298.877 137.391C301.201 137.391 303.396 136.357 305.075 134.807C305.591 134.29 306.237 135.194 305.849 135.841C304.171 138.296 301.718 139.975 298.877 139.975C296.037 139.975 293.584 138.425 291.906 135.841C291.518 135.194 292.164 134.29 292.68 134.807C294.488 136.487 296.553 137.391 298.877 137.391Z" fill="#3D8E7E"/>
<path d="M336.965 176.412C353.651 176.412 367.177 163.396 367.177 147.34C367.177 131.284 353.651 118.268 336.965 118.268C320.28 118.268 306.753 131.284 306.753 147.34C306.753 163.396 320.28 176.412 336.965 176.412Z" fill="#1F1B1C"/>
<path d="M355.299 126.537C355.299 126.537 361.109 125.504 362.4 120.723C362.4 120.723 363.433 125.504 358.914 128.863C354.266 132.352 355.299 126.537 355.299 126.537Z" fill="#1F1B1C"/>
<path d="M359.043 129.509C359.043 129.509 364.853 128.476 366.144 123.695C366.144 123.695 367.177 128.476 362.658 131.835C357.881 135.324 359.043 129.509 359.043 129.509Z" fill="#1F1B1C"/>
<path d="M336.19 174.603C351.307 174.603 363.562 162.744 363.562 148.115C363.562 133.487 351.307 121.627 336.19 121.627C321.074 121.627 308.819 133.487 308.819 148.115C308.819 162.744 321.074 174.603 336.19 174.603Z" fill="white"/>
<path d="M356.203 153.413C354.266 151.733 351.684 150.7 348.972 150.7C348.456 150.7 347.94 150.7 347.423 150.829C347.036 146.953 343.679 143.981 339.547 143.981C335.158 143.981 331.672 147.34 331.672 151.604C331.672 155.48 334.641 158.581 338.514 159.098C338.385 159.744 338.256 160.39 338.256 161.036C338.256 163.233 339.031 165.3 340.193 166.98C338.902 167.239 337.74 167.368 336.32 167.368C324.7 167.368 315.404 158.323 315.404 147.211C315.404 136.099 324.829 127.054 336.32 127.054C347.94 127.054 357.235 136.099 357.235 147.211C357.235 149.408 356.848 151.475 356.203 153.413Z" fill="#1F1B1C"/>
<path d="M260.79 176.412C277.476 176.412 291.002 163.396 291.002 147.34C291.002 131.284 277.476 118.268 260.79 118.268C244.105 118.268 230.578 131.284 230.578 147.34C230.578 163.396 244.105 176.412 260.79 176.412Z" fill="#1F1B1C"/>
<path d="M242.456 126.537C242.456 126.537 236.646 125.504 235.355 120.723C235.355 120.723 234.322 125.504 238.841 128.863C243.489 132.352 242.456 126.537 242.456 126.537Z" fill="#1F1B1C"/>
<path d="M238.841 129.509C238.841 129.509 233.031 128.476 231.74 123.695C231.74 123.695 230.707 128.476 235.226 131.835C239.874 135.324 238.841 129.509 238.841 129.509Z" fill="#1F1B1C"/>
<path d="M261.565 174.603C276.681 174.603 288.936 162.744 288.936 148.115C288.936 133.487 276.681 121.627 261.565 121.627C246.448 121.627 234.193 133.487 234.193 148.115C234.193 162.744 246.448 174.603 261.565 174.603Z" fill="white"/>
<path d="M241.682 153.413C243.619 151.733 246.201 150.7 248.912 150.7C249.429 150.7 249.945 150.7 250.462 150.829C250.849 146.953 254.206 143.981 258.337 143.981C262.727 143.981 266.213 147.34 266.213 151.604C266.213 155.48 263.243 158.581 259.37 159.098C259.499 159.744 259.628 160.39 259.628 161.036C259.628 163.233 258.854 165.3 257.692 166.98C258.983 167.239 260.145 167.368 261.565 167.368C273.185 167.368 282.481 158.323 282.481 147.211C282.481 136.099 273.056 127.054 261.565 127.054C249.945 127.054 240.649 136.099 240.649 147.211C240.649 149.408 241.036 151.475 241.682 153.413Z" fill="#1F1B1C"/>
<path d="M309.335 162.587C309.464 162.716 309.464 162.845 309.464 162.975C309.852 163.75 309.981 164.913 309.594 165.688L299.91 195.019C299.394 196.44 298.232 196.44 297.715 195.019L288.032 165.688C287.774 164.784 287.774 163.621 288.161 162.975C288.161 162.845 288.29 162.716 288.29 162.587C294.23 151.992 303.655 151.992 309.335 162.587Z" fill="#F3951F"/>
<path d="M199.979 64L230.966 200.962L221.928 202.771L190.683 66.0674L199.979 64Z" fill="#A8CDE7"/>
<path d="M181 68.2639L190.683 66.0673L221.928 202.771L211.986 205.097L181 68.2639Z" fill="#95C4E0"/>
<path d="M211.212 201.35L211.341 201.996L220.895 199.799L220.766 199.153L211.212 201.35Z" fill="white"/>
<path d="M210.308 197.603L210.437 198.249L215.085 197.215L214.956 196.569L210.308 197.603Z" fill="white"/>
<path d="M209.533 193.985L209.662 194.631L214.31 193.597L214.181 192.951L209.533 193.985Z" fill="white"/>
<path d="M208.759 190.367L208.888 191.013L213.536 189.979L213.407 189.333L208.759 190.367Z" fill="white"/>
<path d="M207.855 186.749L207.984 187.395L212.632 186.362L212.503 185.715L207.855 186.749Z" fill="white"/>
<path d="M206.951 182.873L207.08 183.519L216.634 181.322L216.505 180.676L206.951 182.873Z" fill="white"/>
<path d="M206.177 179.126L206.306 179.772L210.954 178.738L210.824 178.092L206.177 179.126Z" fill="white"/>
<path d="M205.402 175.508L205.531 176.154L210.179 175.12L210.05 174.474L205.402 175.508Z" fill="white"/>
<path d="M204.498 171.89L204.627 172.536L209.275 171.502L209.146 170.856L204.498 171.89Z" fill="white"/>
<path d="M203.723 168.272L203.852 168.918L208.5 167.885L208.371 167.238L203.723 168.272Z" fill="white"/>
<path d="M202.82 164.396L202.949 165.042L212.503 162.845L212.374 162.199L202.82 164.396Z" fill="white"/>
<path d="M202.045 160.778L202.174 161.424L206.822 160.39L206.693 159.744L202.045 160.778Z" fill="white"/>
<path d="M201.141 157.031L201.27 157.677L205.918 156.643L205.789 155.997L201.141 157.031Z" fill="white"/>
<path d="M200.366 153.413L200.496 154.059L205.144 153.025L205.014 152.379L200.366 153.413Z" fill="white"/>
<path d="M199.463 149.795L199.592 150.441L204.24 149.408L204.111 148.762L199.463 149.795Z" fill="white"/>
<path d="M198.688 145.919L198.817 146.565L208.371 144.368L208.242 143.722L198.688 145.919Z" fill="white"/>
<path d="M197.784 142.301L197.914 142.947L202.561 141.913L202.432 141.267L197.784 142.301Z" fill="white"/>
<path d="M197.01 138.683L197.139 139.329L201.787 138.295L201.658 137.649L197.01 138.683Z" fill="white"/>
<path d="M196.106 134.936L196.235 135.582L200.883 134.548L200.754 133.902L196.106 134.936Z" fill="white"/>
<path d="M195.331 131.318L195.46 131.964L200.108 130.931L199.979 130.285L195.331 131.318Z" fill="white"/>
<path d="M194.427 127.442L194.557 128.088L204.111 125.891L203.982 125.245L194.427 127.442Z" fill="white"/>
<path d="M193.653 123.824L193.782 124.47L198.43 123.436L198.301 122.79L193.653 123.824Z" fill="white"/>
<path d="M192.749 120.206L192.878 120.852L197.526 119.819L197.397 119.173L192.749 120.206Z" fill="white"/>
<path d="M191.974 116.459L192.103 117.105L196.751 116.071L196.622 115.425L191.974 116.459Z" fill="white"/>
<path d="M191.071 112.841L191.2 113.487L195.848 112.454L195.719 111.808L191.071 112.841Z" fill="white"/>
<path d="M190.296 108.965L190.425 109.611L199.979 107.414L199.85 106.768L190.296 108.965Z" fill="white"/>
<path d="M189.392 105.347L189.521 105.993L194.169 104.959L194.04 104.313L189.392 105.347Z" fill="white"/>
<path d="M188.618 101.729L188.747 102.375L193.395 101.342L193.266 100.696L188.618 101.729Z" fill="white"/>
<path d="M187.714 98.1113L187.843 98.7574L192.491 97.7237L192.362 97.0777L187.714 98.1113Z" fill="white"/>
<path d="M186.939 94.3643L187.068 95.0103L191.716 93.9766L191.587 93.3306L186.939 94.3643Z" fill="white"/>
<path d="M186.035 90.488L186.165 91.134L195.719 88.9375L195.59 88.2914L186.035 90.488Z" fill="white"/>
<path d="M185.26 86.8701L185.39 87.5161L190.038 86.4825L189.908 85.8364L185.26 86.8701Z" fill="white"/>
<path d="M184.357 83.2522L184.486 83.8983L189.134 82.8646L189.005 82.2186L184.357 83.2522Z" fill="white"/>
<path d="M183.582 79.6344L183.711 80.2804L188.359 79.2467L188.23 78.6007L183.582 79.6344Z" fill="white"/>
<path d="M182.808 76.0165L182.937 76.6625L187.585 75.6289L187.456 74.9828L182.808 76.0165Z" fill="white"/>
<path d="M239.229 186.878C225.027 182.356 215.731 171.502 212.374 155.61C209.921 143.852 211.47 133.515 211.599 132.998L212.116 130.026L301.976 149.408L301.46 152.25C301.331 153.155 297.328 173.57 280.415 184.165C274.088 188.17 266.729 190.109 258.724 190.109C252.656 190.238 246.072 189.075 239.229 186.878ZM216.764 137.003C215.989 146.177 215.989 173.441 240.907 181.322C255.626 185.974 267.891 185.328 277.574 179.255C288.807 172.148 293.713 159.486 295.262 153.93L216.764 137.003Z" fill="#5E5E5E"/>
<path d="M316.178 184.294C299.394 173.699 295.391 153.284 295.133 152.379L294.617 149.537L384.477 130.155L384.994 133.127C385.123 133.515 386.672 143.981 384.219 155.739C380.862 171.761 371.566 182.485 357.364 187.008C350.392 189.204 343.937 190.367 337.869 190.367C329.864 190.238 322.504 188.17 316.178 184.294ZM301.33 153.93C303.009 159.486 307.786 172.148 319.018 179.255C328.702 185.328 341.096 186.103 355.815 181.322C380.733 173.441 380.604 146.177 379.958 137.003L301.33 153.93Z" fill="#5E5E5E"/>
<path d="M156 112L129.5 94.5L156 90V112Z" fill="#3FA695"/>
<path d="M15.984 25.6C16.208 25.6 16.388 25.668 16.524 25.804C16.66 25.94 16.728 26.116 16.728 26.332V33.268C16.728 33.476 16.656 33.652 16.512 33.796C16.368 33.932 16.184 34 15.96 34C15.76 34 15.588 33.932 15.444 33.796C15.3 33.652 15.228 33.476 15.228 33.268V30.472H11.4V33.268C11.4 33.476 11.324 33.652 11.172 33.796C11.02 33.932 10.844 34 10.644 34C10.428 34 10.248 33.932 10.104 33.796C9.968 33.652 9.9 33.476 9.9 33.268V26.332C9.9 26.124 9.972 25.952 10.116 25.816C10.26 25.672 10.444 25.6 10.668 25.6C10.868 25.6 11.04 25.672 11.184 25.816C11.328 25.952 11.4 26.124 11.4 26.332V29.092H15.228V26.332C15.228 26.124 15.304 25.952 15.456 25.816C15.608 25.672 15.784 25.6 15.984 25.6ZM24.165 30.64C24.157 30.832 24.081 30.988 23.937 31.108C23.793 31.228 23.625 31.288 23.433 31.288H19.473C19.569 31.76 19.789 32.132 20.133 32.404C20.477 32.668 20.865 32.8 21.297 32.8C21.625 32.8 21.881 32.772 22.065 32.716C22.249 32.652 22.393 32.588 22.497 32.524C22.609 32.452 22.685 32.404 22.725 32.38C22.869 32.308 23.005 32.272 23.133 32.272C23.301 32.272 23.445 32.332 23.565 32.452C23.685 32.572 23.745 32.712 23.745 32.872C23.745 33.088 23.633 33.284 23.409 33.46C23.185 33.644 22.885 33.8 22.509 33.928C22.133 34.056 21.753 34.12 21.369 34.12C20.697 34.12 20.109 33.98 19.605 33.7C19.109 33.42 18.725 33.036 18.453 32.548C18.181 32.052 18.045 31.496 18.045 30.88C18.045 30.192 18.189 29.588 18.477 29.068C18.765 28.548 19.145 28.152 19.617 27.88C20.089 27.6 20.593 27.46 21.129 27.46C21.657 27.46 22.153 27.604 22.617 27.892C23.089 28.18 23.465 28.568 23.745 29.056C24.025 29.544 24.165 30.072 24.165 30.64ZM21.129 28.78C20.201 28.78 19.653 29.216 19.485 30.088H22.629V30.004C22.597 29.668 22.433 29.38 22.137 29.14C21.841 28.9 21.505 28.78 21.129 28.78ZM30.0713 27.58C30.2793 27.58 30.4513 27.652 30.5873 27.796C30.7233 27.932 30.7913 28.104 30.7913 28.312V33.412C30.7913 34.452 30.5113 35.208 29.9513 35.68C29.3913 36.16 28.6433 36.4 27.7073 36.4C27.4353 36.4 27.1553 36.376 26.8673 36.328C26.5873 36.288 26.3593 36.232 26.1833 36.16C25.7913 35.992 25.5953 35.76 25.5953 35.464C25.5953 35.408 25.6073 35.344 25.6313 35.272C25.6793 35.096 25.7593 34.96 25.8713 34.864C25.9913 34.776 26.1193 34.732 26.2553 34.732C26.3353 34.732 26.4113 34.744 26.4833 34.768C26.5393 34.792 26.6353 34.832 26.7713 34.888C26.9153 34.944 27.0633 34.988 27.2153 35.02C27.3753 35.06 27.5393 35.08 27.7073 35.08C28.2753 35.08 28.6913 34.956 28.9553 34.708C29.2273 34.468 29.3633 34.052 29.3633 33.46V33.34C28.9473 33.86 28.2993 34.12 27.4193 34.12C27.0033 34.12 26.6353 34.024 26.3153 33.832C25.9953 33.632 25.7473 33.36 25.5713 33.016C25.3953 32.664 25.3073 32.264 25.3073 31.816V28.312C25.3073 28.104 25.3753 27.932 25.5113 27.796C25.6473 27.652 25.8193 27.58 26.0273 27.58C26.2353 27.58 26.4073 27.652 26.5433 27.796C26.6793 27.932 26.7473 28.104 26.7473 28.312V31.384C26.7473 31.888 26.8553 32.252 27.0713 32.476C27.2953 32.692 27.6193 32.8 28.0433 32.8C28.4593 32.8 28.7793 32.68 29.0033 32.44C29.2353 32.192 29.3513 31.84 29.3513 31.384V28.312C29.3513 28.104 29.4193 27.932 29.5553 27.796C29.6913 27.652 29.8633 27.58 30.0713 27.58ZM17.184 40.588C17.384 40.588 17.556 40.66 17.7 40.804C17.852 40.94 17.928 41.112 17.928 41.32V48.268C17.928 48.476 17.86 48.652 17.724 48.796C17.588 48.932 17.408 49 17.184 49C16.96 49 16.776 48.932 16.632 48.796C16.496 48.66 16.428 48.484 16.428 48.268V43.432L14.448 46.456C14.368 46.552 14.276 46.632 14.172 46.696C14.068 46.752 13.96 46.776 13.848 46.768C13.744 46.776 13.64 46.752 13.536 46.696C13.432 46.632 13.34 46.552 13.26 46.456L11.28 43.324V48.268C11.28 48.484 11.216 48.66 11.088 48.796C10.96 48.932 10.792 49 10.584 49C10.384 49 10.22 48.932 10.092 48.796C9.964 48.652 9.9 48.476 9.9 48.268V41.32C9.9 41.12 9.972 40.948 10.116 40.804C10.268 40.66 10.448 40.588 10.656 40.588C10.776 40.588 10.896 40.62 11.016 40.684C11.136 40.74 11.228 40.816 11.292 40.912L13.908 44.932L16.596 40.912C16.66 40.816 16.744 40.74 16.848 40.684C16.96 40.62 17.072 40.588 17.184 40.588ZM24.376 42.58C24.584 42.58 24.756 42.652 24.892 42.796C25.028 42.932 25.096 43.104 25.096 43.312V48.412C25.096 49.452 24.816 50.208 24.256 50.68C23.696 51.16 22.948 51.4 22.012 51.4C21.74 51.4 21.46 51.376 21.172 51.328C20.892 51.288 20.664 51.232 20.488 51.16C20.096 50.992 19.9 50.76 19.9 50.464C19.9 50.408 19.912 50.344 19.936 50.272C19.984 50.096 20.064 49.96 20.176 49.864C20.296 49.776 20.424 49.732 20.56 49.732C20.64 49.732 20.716 49.744 20.788 49.768C20.844 49.792 20.94 49.832 21.076 49.888C21.22 49.944 21.368 49.988 21.52 50.02C21.68 50.06 21.844 50.08 22.012 50.08C22.58 50.08 22.996 49.956 23.26 49.708C23.532 49.468 23.668 49.052 23.668 48.46V48.34C23.252 48.86 22.604 49.12 21.724 49.12C21.308 49.12 20.94 49.024 20.62 48.832C20.3 48.632 20.052 48.36 19.876 48.016C19.7 47.664 19.612 47.264 19.612 46.816V43.312C19.612 43.104 19.68 42.932 19.816 42.796C19.952 42.652 20.124 42.58 20.332 42.58C20.54 42.58 20.712 42.652 20.848 42.796C20.984 42.932 21.052 43.104 21.052 43.312V46.384C21.052 46.888 21.16 47.252 21.376 47.476C21.6 47.692 21.924 47.8 22.348 47.8C22.764 47.8 23.084 47.68 23.308 47.44C23.54 47.192 23.656 46.84 23.656 46.384V43.312C23.656 43.104 23.724 42.932 23.86 42.796C23.996 42.652 24.168 42.58 24.376 42.58ZM36.5103 40.6C36.7023 40.6 36.8583 40.664 36.9783 40.792C37.0983 40.92 37.1583 41.08 37.1583 41.272V48.268C37.1583 48.476 37.0863 48.652 36.9423 48.796C36.8063 48.932 36.6343 49 36.4263 49C36.3143 49 36.2023 48.984 36.0903 48.952C35.9863 48.912 35.9103 48.86 35.8623 48.796L31.4583 43.204V48.328C31.4583 48.52 31.3943 48.68 31.2663 48.808C31.1463 48.936 30.9863 49 30.7863 49C30.5943 49 30.4383 48.936 30.3183 48.808C30.1983 48.68 30.1383 48.52 30.1383 48.328V41.332C30.1383 41.124 30.2063 40.952 30.3423 40.816C30.4863 40.672 30.6623 40.6 30.8703 40.6C30.9903 40.6 31.1063 40.624 31.2183 40.672C31.3383 40.72 31.4263 40.784 31.4823 40.864L35.8503 46.432V41.272C35.8503 41.08 35.9103 40.92 36.0303 40.792C36.1583 40.664 36.3183 40.6 36.5103 40.6ZM44.0385 42.46C44.2465 42.46 44.4185 42.528 44.5545 42.664C44.6905 42.8 44.7585 42.976 44.7585 43.192V48.268C44.7585 48.476 44.6905 48.652 44.5545 48.796C44.4185 48.932 44.2465 49 44.0385 49C43.8305 49 43.6585 48.932 43.5225 48.796C43.3945 48.66 43.3265 48.488 43.3185 48.28C43.1185 48.512 42.8465 48.712 42.5025 48.88C42.1665 49.04 41.8105 49.12 41.4345 49.12C40.8825 49.12 40.3825 48.98 39.9345 48.7C39.4865 48.412 39.1305 48.016 38.8665 47.512C38.6105 47.008 38.4825 46.436 38.4825 45.796C38.4825 45.156 38.6105 44.584 38.8665 44.08C39.1225 43.568 39.4705 43.172 39.9105 42.892C40.3585 42.604 40.8505 42.46 41.3865 42.46C41.7705 42.46 42.1305 42.532 42.4665 42.676C42.8025 42.812 43.0865 42.988 43.3185 43.204V43.192C43.3185 42.984 43.3865 42.812 43.5225 42.676C43.6585 42.532 43.8305 42.46 44.0385 42.46ZM41.6145 47.8C42.1345 47.8 42.5585 47.612 42.8865 47.236C43.2145 46.852 43.3785 46.372 43.3785 45.796C43.3785 45.22 43.2145 44.74 42.8865 44.356C42.5585 43.972 42.1345 43.78 41.6145 43.78C41.1025 43.78 40.6825 43.972 40.3545 44.356C40.0265 44.74 39.8625 45.22 39.8625 45.796C39.8625 46.372 40.0225 46.852 40.3425 47.236C40.6705 47.612 41.0945 47.8 41.6145 47.8ZM53.7231 42.46C54.5151 42.46 55.0631 42.704 55.3671 43.192C55.6711 43.672 55.8231 44.34 55.8231 45.196V48.268C55.8231 48.476 55.7551 48.652 55.6191 48.796C55.4831 48.932 55.3111 49 55.1031 49C54.8951 49 54.7231 48.932 54.5871 48.796C54.4511 48.652 54.3831 48.476 54.3831 48.268V45.196C54.3831 44.756 54.2951 44.412 54.1191 44.164C53.9511 43.908 53.6511 43.78 53.2191 43.78C52.7711 43.78 52.4191 43.916 52.1631 44.188C51.9151 44.452 51.7911 44.788 51.7911 45.196V48.268C51.7911 48.476 51.7231 48.652 51.5871 48.796C51.4511 48.932 51.2791 49 51.0711 49C50.8631 49 50.6911 48.932 50.5551 48.796C50.4191 48.652 50.3511 48.476 50.3511 48.268V45.196C50.3511 44.756 50.2631 44.412 50.0871 44.164C49.9191 43.908 49.6191 43.78 49.1871 43.78C48.7391 43.78 48.3871 43.916 48.1311 44.188C47.8831 44.452 47.7591 44.788 47.7591 45.196V48.268C47.7591 48.476 47.6911 48.652 47.5551 48.796C47.4191 48.932 47.2471 49 47.0391 49C46.8311 49 46.6591 48.932 46.5231 48.796C46.3871 48.652 46.3191 48.476 46.3191 48.268V43.312C46.3191 43.104 46.3871 42.932 46.5231 42.796C46.6591 42.652 46.8311 42.58 47.0391 42.58C47.2471 42.58 47.4191 42.652 47.5551 42.796C47.6911 42.932 47.7591 43.104 47.7591 43.312V43.504C47.9751 43.216 48.2471 42.972 48.5751 42.772C48.9111 42.564 49.2831 42.46 49.6911 42.46C50.6991 42.46 51.3431 42.9 51.6231 43.78C51.8071 43.444 52.0831 43.14 52.4511 42.868C52.8271 42.596 53.2511 42.46 53.7231 42.46ZM63.1416 45.64C63.1336 45.832 63.0576 45.988 62.9136 46.108C62.7696 46.228 62.6016 46.288 62.4096 46.288H58.4496C58.5456 46.76 58.7656 47.132 59.1096 47.404C59.4536 47.668 59.8416 47.8 60.2736 47.8C60.6016 47.8 60.8576 47.772 61.0416 47.716C61.2256 47.652 61.3696 47.588 61.4736 47.524C61.5856 47.452 61.6616 47.404 61.7016 47.38C61.8456 47.308 61.9816 47.272 62.1096 47.272C62.2776 47.272 62.4216 47.332 62.5416 47.452C62.6616 47.572 62.7216 47.712 62.7216 47.872C62.7216 48.088 62.6096 48.284 62.3856 48.46C62.1616 48.644 61.8616 48.8 61.4856 48.928C61.1096 49.056 60.7296 49.12 60.3456 49.12C59.6736 49.12 59.0856 48.98 58.5816 48.7C58.0856 48.42 57.7016 48.036 57.4296 47.548C57.1576 47.052 57.0216 46.496 57.0216 45.88C57.0216 45.192 57.1656 44.588 57.4536 44.068C57.7416 43.548 58.1216 43.152 58.5936 42.88C59.0656 42.6 59.5696 42.46 60.1056 42.46C60.6336 42.46 61.1296 42.604 61.5936 42.892C62.0656 43.18 62.4416 43.568 62.7216 44.056C63.0016 44.544 63.1416 45.072 63.1416 45.64ZM60.1056 43.78C59.1776 43.78 58.6296 44.216 58.4616 45.088H61.6056V45.004C61.5736 44.668 61.4096 44.38 61.1136 44.14C60.8176 43.9 60.4816 43.78 60.1056 43.78ZM69.3258 48.268C69.3258 48.476 69.2498 48.652 69.0978 48.796C68.9458 48.932 68.7698 49 68.5698 49C68.3538 49 68.1738 48.932 68.0298 48.796C67.8938 48.652 67.8258 48.476 67.8258 48.268V41.332C67.8258 41.124 67.8978 40.952 68.0418 40.816C68.1858 40.672 68.3698 40.6 68.5938 40.6C68.7938 40.6 68.9658 40.672 69.1098 40.816C69.2538 40.952 69.3258 41.124 69.3258 41.332V48.268ZM70.6385 48.004C70.5665 47.908 70.5305 47.788 70.5305 47.644C70.5305 47.436 70.6345 47.26 70.8425 47.116C70.9545 47.044 71.0705 47.008 71.1905 47.008C71.3585 47.008 71.5185 47.084 71.6705 47.236C71.9105 47.484 72.1585 47.668 72.4145 47.788C72.6785 47.908 72.9945 47.968 73.3625 47.968C73.9865 47.944 74.2985 47.708 74.2985 47.26C74.2985 47.028 74.1905 46.852 73.9745 46.732C73.7665 46.612 73.4385 46.492 72.9905 46.372C72.5265 46.244 72.1465 46.116 71.8505 45.988C71.5625 45.86 71.3105 45.668 71.0945 45.412C70.8865 45.148 70.7825 44.796 70.7825 44.356C70.7825 43.972 70.8905 43.64 71.1065 43.36C71.3305 43.072 71.6185 42.852 71.9705 42.7C72.3305 42.54 72.7105 42.46 73.1105 42.46C73.5185 42.46 73.9265 42.536 74.3345 42.688C74.7425 42.84 75.0625 43.064 75.2945 43.36C75.3985 43.488 75.4505 43.632 75.4505 43.792C75.4505 43.976 75.3745 44.128 75.2225 44.248C75.1105 44.336 74.9825 44.38 74.8385 44.38C74.6625 44.38 74.5185 44.324 74.4065 44.212C74.2625 44.036 74.0745 43.896 73.8425 43.792C73.6185 43.688 73.3625 43.636 73.0745 43.636C72.4665 43.636 72.1625 43.856 72.1625 44.296C72.1625 44.472 72.2185 44.616 72.3305 44.728C72.4425 44.832 72.5825 44.916 72.7505 44.98C72.9265 45.036 73.1705 45.108 73.4825 45.196C73.9145 45.316 74.2745 45.44 74.5625 45.568C74.8505 45.696 75.0945 45.892 75.2945 46.156C75.4945 46.42 75.5945 46.768 75.5945 47.2C75.5945 47.592 75.4785 47.936 75.2465 48.232C75.0145 48.52 74.7145 48.74 74.3465 48.892C73.9865 49.044 73.6145 49.12 73.2305 49.12C72.7025 49.12 72.2105 49.032 71.7545 48.856C71.2985 48.68 70.9265 48.396 70.6385 48.004ZM87.5668 40.588C87.7668 40.588 87.9388 40.66 88.0828 40.804C88.2348 40.94 88.3108 41.112 88.3108 41.32V48.268C88.3108 48.476 88.2428 48.652 88.1068 48.796C87.9708 48.932 87.7908 49 87.5668 49C87.3428 49 87.1588 48.932 87.0148 48.796C86.8788 48.66 86.8108 48.484 86.8108 48.268V43.432L84.8308 46.456C84.7508 46.552 84.6588 46.632 84.5548 46.696C84.4508 46.752 84.3428 46.776 84.2308 46.768C84.1268 46.776 84.0228 46.752 83.9188 46.696C83.8148 46.632 83.7228 46.552 83.6428 46.456L81.6628 43.324V48.268C81.6628 48.484 81.5988 48.66 81.4708 48.796C81.3428 48.932 81.1748 49 80.9668 49C80.7668 49 80.6028 48.932 80.4748 48.796C80.3468 48.652 80.2828 48.476 80.2828 48.268V41.32C80.2828 41.12 80.3548 40.948 80.4988 40.804C80.6508 40.66 80.8308 40.588 81.0388 40.588C81.1588 40.588 81.2788 40.62 81.3988 40.684C81.5188 40.74 81.6108 40.816 81.6748 40.912L84.2908 44.932L86.9788 40.912C87.0428 40.816 87.1268 40.74 87.2308 40.684C87.3428 40.62 87.4548 40.588 87.5668 40.588ZM91.3508 48.268C91.3508 48.476 91.2828 48.652 91.1468 48.796C91.0108 48.932 90.8388 49 90.6308 49C90.4228 49 90.2508 48.932 90.1148 48.796C89.9788 48.652 89.9108 48.476 89.9108 48.268V43.312C89.9108 43.104 89.9788 42.932 90.1148 42.796C90.2508 42.652 90.4228 42.58 90.6308 42.58C90.8388 42.58 91.0108 42.652 91.1468 42.796C91.2828 42.932 91.3508 43.104 91.3508 43.312V48.268ZM90.6188 41.8C90.3468 41.8 90.1548 41.756 90.0428 41.668C89.9308 41.58 89.8748 41.424 89.8748 41.2V40.972C89.8748 40.748 89.9348 40.592 90.0548 40.504C90.1748 40.416 90.3668 40.372 90.6308 40.372C90.9108 40.372 91.1068 40.416 91.2188 40.504C91.3308 40.592 91.3868 40.748 91.3868 40.972V41.2C91.3868 41.432 91.3268 41.592 91.2068 41.68C91.0948 41.76 90.8988 41.8 90.6188 41.8ZM92.4588 48.004C92.3868 47.908 92.3508 47.788 92.3508 47.644C92.3508 47.436 92.4548 47.26 92.6628 47.116C92.7748 47.044 92.8908 47.008 93.0108 47.008C93.1788 47.008 93.3388 47.084 93.4908 47.236C93.7308 47.484 93.9788 47.668 94.2348 47.788C94.4988 47.908 94.8148 47.968 95.1828 47.968C95.8068 47.944 96.1188 47.708 96.1188 47.26C96.1188 47.028 96.0108 46.852 95.7948 46.732C95.5868 46.612 95.2588 46.492 94.8108 46.372C94.3468 46.244 93.9668 46.116 93.6708 45.988C93.3828 45.86 93.1308 45.668 92.9148 45.412C92.7068 45.148 92.6028 44.796 92.6028 44.356C92.6028 43.972 92.7108 43.64 92.9268 43.36C93.1508 43.072 93.4388 42.852 93.7908 42.7C94.1508 42.54 94.5308 42.46 94.9308 42.46C95.3388 42.46 95.7468 42.536 96.1548 42.688C96.5628 42.84 96.8828 43.064 97.1148 43.36C97.2188 43.488 97.2708 43.632 97.2708 43.792C97.2708 43.976 97.1948 44.128 97.0428 44.248C96.9308 44.336 96.8028 44.38 96.6588 44.38C96.4828 44.38 96.3388 44.324 96.2268 44.212C96.0828 44.036 95.8948 43.896 95.6628 43.792C95.4388 43.688 95.1828 43.636 94.8948 43.636C94.2868 43.636 93.9828 43.856 93.9828 44.296C93.9828 44.472 94.0388 44.616 94.1508 44.728C94.2628 44.832 94.4028 44.916 94.5708 44.98C94.7468 45.036 94.9908 45.108 95.3028 45.196C95.7348 45.316 96.0948 45.44 96.3828 45.568C96.6708 45.696 96.9148 45.892 97.1148 46.156C97.3148 46.42 97.4148 46.768 97.4148 47.2C97.4148 47.592 97.2988 47.936 97.0668 48.232C96.8348 48.52 96.5348 48.74 96.1668 48.892C95.8068 49.044 95.4348 49.12 95.0508 49.12C94.5228 49.12 94.0308 49.032 93.5748 48.856C93.1188 48.68 92.7468 48.396 92.4588 48.004ZM98.2478 48.004C98.1758 47.908 98.1398 47.788 98.1398 47.644C98.1398 47.436 98.2438 47.26 98.4518 47.116C98.5638 47.044 98.6798 47.008 98.7998 47.008C98.9678 47.008 99.1278 47.084 99.2798 47.236C99.5198 47.484 99.7678 47.668 100.024 47.788C100.288 47.908 100.604 47.968 100.972 47.968C101.596 47.944 101.908 47.708 101.908 47.26C101.908 47.028 101.8 46.852 101.584 46.732C101.376 46.612 101.048 46.492 100.6 46.372C100.136 46.244 99.7558 46.116 99.4598 45.988C99.1718 45.86 98.9198 45.668 98.7038 45.412C98.4958 45.148 98.3918 44.796 98.3918 44.356C98.3918 43.972 98.4998 43.64 98.7158 43.36C98.9398 43.072 99.2278 42.852 99.5798 42.7C99.9398 42.54 100.32 42.46 100.72 42.46C101.128 42.46 101.536 42.536 101.944 42.688C102.352 42.84 102.672 43.064 102.904 43.36C103.008 43.488 103.06 43.632 103.06 43.792C103.06 43.976 102.984 44.128 102.832 44.248C102.72 44.336 102.592 44.38 102.448 44.38C102.272 44.38 102.128 44.324 102.016 44.212C101.872 44.036 101.684 43.896 101.452 43.792C101.228 43.688 100.972 43.636 100.684 43.636C100.076 43.636 99.7718 43.856 99.7718 44.296C99.7718 44.472 99.8278 44.616 99.9398 44.728C100.052 44.832 100.192 44.916 100.36 44.98C100.536 45.036 100.78 45.108 101.092 45.196C101.524 45.316 101.884 45.44 102.172 45.568C102.46 45.696 102.704 45.892 102.904 46.156C103.104 46.42 103.204 46.768 103.204 47.2C103.204 47.592 103.088 47.936 102.856 48.232C102.624 48.52 102.324 48.74 101.956 48.892C101.596 49.044 101.224 49.12 100.84 49.12C100.312 49.12 99.8198 49.032 99.3638 48.856C98.9078 48.68 98.5358 48.396 98.2478 48.004ZM105.045 48.988C104.813 48.988 104.633 48.928 104.505 48.808C104.385 48.68 104.325 48.5 104.325 48.268V48.064C104.325 47.832 104.385 47.656 104.505 47.536C104.633 47.408 104.813 47.344 105.045 47.344H105.201C105.433 47.344 105.609 47.408 105.729 47.536C105.857 47.656 105.921 47.832 105.921 48.064V48.268C105.921 48.5 105.857 48.68 105.729 48.808C105.609 48.928 105.433 48.988 105.201 48.988H105.045ZM118.608 44.8C118.608 45.592 118.432 46.32 118.08 46.984C117.728 47.64 117.24 48.16 116.616 48.544C116 48.928 115.304 49.12 114.528 49.12C113.752 49.12 113.052 48.928 112.428 48.544C111.812 48.16 111.328 47.64 110.976 46.984C110.632 46.32 110.46 45.592 110.46 44.8C110.46 44.008 110.632 43.284 110.976 42.628C111.328 41.964 111.812 41.44 112.428 41.056C113.052 40.672 113.752 40.48 114.528 40.48C115.304 40.48 116 40.672 116.616 41.056C117.24 41.44 117.728 41.964 118.08 42.628C118.432 43.284 118.608 44.008 118.608 44.8ZM117.048 44.8C117.048 44.264 116.94 43.78 116.724 43.348C116.508 42.908 116.208 42.56 115.824 42.304C115.44 42.048 115.008 41.92 114.528 41.92C114.04 41.92 113.604 42.048 113.22 42.304C112.844 42.552 112.548 42.896 112.332 43.336C112.124 43.776 112.02 44.264 112.02 44.8C112.02 45.336 112.124 45.824 112.332 46.264C112.548 46.704 112.844 47.052 113.22 47.308C113.604 47.556 114.04 47.68 114.528 47.68C115.008 47.68 115.44 47.552 115.824 47.296C116.208 47.04 116.508 46.696 116.724 46.264C116.94 45.824 117.048 45.336 117.048 44.8ZM127.258 42.58C127.45 42.58 127.61 42.652 127.738 42.796C127.874 42.932 127.942 43.108 127.942 43.324C127.942 43.396 127.926 43.488 127.894 43.6L126.058 48.544C126.01 48.688 125.922 48.804 125.794 48.892C125.674 48.972 125.542 49.012 125.398 49.012L125.302 49C125.03 48.984 124.826 48.832 124.69 48.544L123.67 45.592L122.698 48.544C122.562 48.832 122.358 48.984 122.086 49L121.99 49.012C121.846 49.012 121.71 48.972 121.582 48.892C121.462 48.804 121.378 48.688 121.33 48.544L119.494 43.6C119.462 43.512 119.446 43.42 119.446 43.324C119.446 43.124 119.51 42.952 119.638 42.808C119.774 42.656 119.95 42.58 120.166 42.58C120.326 42.58 120.462 42.62 120.574 42.7C120.694 42.772 120.778 42.884 120.826 43.036L122.122 46.552L123.07 43.984C123.198 43.688 123.418 43.54 123.73 43.54C123.898 43.54 124.026 43.576 124.114 43.648C124.21 43.72 124.29 43.832 124.354 43.984L125.278 46.492L126.562 43.036C126.61 42.884 126.694 42.772 126.814 42.7C126.934 42.62 127.082 42.58 127.258 42.58ZM130.637 48.268C130.637 48.476 130.565 48.652 130.421 48.796C130.285 48.932 130.113 49 129.905 49C129.705 49 129.537 48.932 129.401 48.796C129.265 48.652 129.197 48.476 129.197 48.268V40.852C129.197 40.644 129.265 40.472 129.401 40.336C129.545 40.192 129.721 40.12 129.929 40.12C130.129 40.12 130.297 40.192 130.433 40.336C130.569 40.472 130.637 40.644 130.637 40.852V48.268ZM131.939 48.004C131.867 47.908 131.831 47.788 131.831 47.644C131.831 47.436 131.935 47.26 132.143 47.116C132.255 47.044 132.371 47.008 132.491 47.008C132.659 47.008 132.819 47.084 132.971 47.236C133.211 47.484 133.459 47.668 133.715 47.788C133.979 47.908 134.295 47.968 134.663 47.968C135.287 47.944 135.599 47.708 135.599 47.26C135.599 47.028 135.491 46.852 135.275 46.732C135.067 46.612 134.739 46.492 134.291 46.372C133.827 46.244 133.447 46.116 133.151 45.988C132.863 45.86 132.611 45.668 132.395 45.412C132.187 45.148 132.083 44.796 132.083 44.356C132.083 43.972 132.191 43.64 132.407 43.36C132.631 43.072 132.919 42.852 133.271 42.7C133.631 42.54 134.011 42.46 134.411 42.46C134.819 42.46 135.227 42.536 135.635 42.688C136.043 42.84 136.363 43.064 136.595 43.36C136.699 43.488 136.751 43.632 136.751 43.792C136.751 43.976 136.675 44.128 136.523 44.248C136.411 44.336 136.283 44.38 136.139 44.38C135.963 44.38 135.819 44.324 135.707 44.212C135.563 44.036 135.375 43.896 135.143 43.792C134.919 43.688 134.663 43.636 134.375 43.636C133.767 43.636 133.463 43.856 133.463 44.296C133.463 44.472 133.519 44.616 133.631 44.728C133.743 44.832 133.883 44.916 134.051 44.98C134.227 45.036 134.471 45.108 134.783 45.196C135.215 45.316 135.575 45.44 135.863 45.568C136.151 45.696 136.395 45.892 136.595 46.156C136.795 46.42 136.895 46.768 136.895 47.2C136.895 47.592 136.779 47.936 136.547 48.232C136.315 48.52 136.015 48.74 135.647 48.892C135.287 49.044 134.915 49.12 134.531 49.12C134.003 49.12 133.511 49.032 133.055 48.856C132.599 48.68 132.227 48.396 131.939 48.004ZM11.4 63.268C11.4 63.476 11.324 63.652 11.172 63.796C11.02 63.932 10.844 64 10.644 64C10.428 64 10.248 63.932 10.104 63.796C9.968 63.652 9.9 63.476 9.9 63.268V56.332C9.9 56.124 9.972 55.952 10.116 55.816C10.26 55.672 10.444 55.6 10.668 55.6C10.868 55.6 11.04 55.672 11.184 55.816C11.328 55.952 11.4 56.124 11.4 56.332V63.268ZM19.544 62.644C19.656 62.644 19.756 62.7 19.844 62.812C19.94 62.916 19.988 63.056 19.988 63.232C19.988 63.448 19.868 63.632 19.628 63.784C19.396 63.928 19.132 64 18.836 64C18.34 64 17.92 63.896 17.576 63.688C17.24 63.472 17.072 63.02 17.072 62.332V59.02H16.52C16.328 59.02 16.168 58.956 16.04 58.828C15.912 58.7 15.848 58.54 15.848 58.348C15.848 58.164 15.912 58.012 16.04 57.892C16.168 57.764 16.328 57.7 16.52 57.7H17.072V56.932C17.072 56.724 17.14 56.552 17.276 56.416C17.42 56.272 17.596 56.2 17.804 56.2C18.004 56.2 18.172 56.272 18.308 56.416C18.444 56.552 18.512 56.724 18.512 56.932V57.7H19.364C19.556 57.7 19.716 57.764 19.844 57.892C19.972 58.02 20.036 58.18 20.036 58.372C20.036 58.556 19.972 58.712 19.844 58.84C19.716 58.96 19.556 59.02 19.364 59.02H18.512V62.272C18.512 62.44 18.556 62.564 18.644 62.644C18.732 62.716 18.852 62.752 19.004 62.752C19.068 62.752 19.156 62.736 19.268 62.704C19.364 62.664 19.456 62.644 19.544 62.644ZM27.0595 60.64C27.0515 60.832 26.9755 60.988 26.8315 61.108C26.6875 61.228 26.5195 61.288 26.3275 61.288H22.3675C22.4635 61.76 22.6835 62.132 23.0275 62.404C23.3715 62.668 23.7595 62.8 24.1915 62.8C24.5195 62.8 24.7755 62.772 24.9595 62.716C25.1435 62.652 25.2875 62.588 25.3915 62.524C25.5035 62.452 25.5795 62.404 25.6195 62.38C25.7635 62.308 25.8995 62.272 26.0275 62.272C26.1955 62.272 26.3395 62.332 26.4595 62.452C26.5795 62.572 26.6395 62.712 26.6395 62.872C26.6395 63.088 26.5275 63.284 26.3035 63.46C26.0795 63.644 25.7795 63.8 25.4035 63.928C25.0275 64.056 24.6475 64.12 24.2635 64.12C23.5915 64.12 23.0035 63.98 22.4995 63.7C22.0035 63.42 21.6195 63.036 21.3475 62.548C21.0755 62.052 20.9395 61.496 20.9395 60.88C20.9395 60.192 21.0835 59.588 21.3715 59.068C21.6595 58.548 22.0395 58.152 22.5115 57.88C22.9835 57.6 23.4875 57.46 24.0235 57.46C24.5515 57.46 25.0475 57.604 25.5115 57.892C25.9835 58.18 26.3595 58.568 26.6395 59.056C26.9195 59.544 27.0595 60.072 27.0595 60.64ZM24.0235 58.78C23.0955 58.78 22.5475 59.216 22.3795 60.088H25.5235V60.004C25.4915 59.668 25.3275 59.38 25.0315 59.14C24.7355 58.9 24.3995 58.78 24.0235 58.78ZM29.8205 63.268C29.8205 63.476 29.7485 63.652 29.6045 63.796C29.4685 63.932 29.2965 64 29.0885 64C28.8885 64 28.7205 63.932 28.5845 63.796C28.4485 63.652 28.3805 63.476 28.3805 63.268V55.852C28.3805 55.644 28.4485 55.472 28.5845 55.336C28.7285 55.192 28.9045 55.12 29.1125 55.12C29.3125 55.12 29.4805 55.192 29.6165 55.336C29.7525 55.472 29.8205 55.644 29.8205 55.852V63.268ZM33.0548 63.268C33.0548 63.476 32.9828 63.652 32.8388 63.796C32.7028 63.932 32.5308 64 32.3228 64C32.1228 64 31.9548 63.932 31.8188 63.796C31.6828 63.652 31.6148 63.476 31.6148 63.268V55.852C31.6148 55.644 31.6828 55.472 31.8188 55.336C31.9628 55.192 32.1388 55.12 32.3468 55.12C32.5468 55.12 32.7148 55.192 32.8508 55.336C32.9868 55.472 33.0548 55.644 33.0548 55.852V63.268ZM43.8525 60.64C43.8445 60.832 43.7685 60.988 43.6245 61.108C43.4805 61.228 43.3125 61.288 43.1205 61.288H39.1605C39.2565 61.76 39.4765 62.132 39.8205 62.404C40.1645 62.668 40.5525 62.8 40.9845 62.8C41.3125 62.8 41.5685 62.772 41.7525 62.716C41.9365 62.652 42.0805 62.588 42.1845 62.524C42.2965 62.452 42.3725 62.404 42.4125 62.38C42.5565 62.308 42.6925 62.272 42.8205 62.272C42.9885 62.272 43.1325 62.332 43.2525 62.452C43.3725 62.572 43.4325 62.712 43.4325 62.872C43.4325 63.088 43.3205 63.284 43.0965 63.46C42.8725 63.644 42.5725 63.8 42.1965 63.928C41.8205 64.056 41.4405 64.12 41.0565 64.12C40.3845 64.12 39.7965 63.98 39.2925 63.7C38.7965 63.42 38.4125 63.036 38.1405 62.548C37.8685 62.052 37.7325 61.496 37.7325 60.88C37.7325 60.192 37.8765 59.588 38.1645 59.068C38.4525 58.548 38.8325 58.152 39.3045 57.88C39.7765 57.6 40.2805 57.46 40.8165 57.46C41.3445 57.46 41.8405 57.604 42.3045 57.892C42.7765 58.18 43.1525 58.568 43.4325 59.056C43.7125 59.544 43.8525 60.072 43.8525 60.64ZM40.8165 58.78C39.8885 58.78 39.3405 59.216 39.1725 60.088H42.3165V60.004C42.2845 59.668 42.1205 59.38 41.8245 59.14C41.5285 58.9 41.1925 58.78 40.8165 58.78ZM49.9268 57.592C50.1188 57.592 50.2788 57.656 50.4068 57.784C50.5348 57.904 50.5988 58.056 50.5988 58.24C50.5988 58.336 50.5668 58.456 50.5028 58.6L48.2588 63.544C48.2028 63.68 48.1188 63.788 48.0068 63.868C47.9028 63.948 47.7828 63.992 47.6468 64L47.5388 64.012C47.4028 64.012 47.2748 63.972 47.1548 63.892C47.0428 63.804 46.9548 63.688 46.8908 63.544L44.6588 58.6C44.6028 58.472 44.5748 58.344 44.5748 58.216C44.5748 58.056 44.6428 57.912 44.7788 57.784C44.9148 57.648 45.0828 57.58 45.2828 57.58C45.4348 57.58 45.5748 57.62 45.7028 57.7C45.8308 57.78 45.9268 57.892 45.9908 58.036L47.6468 61.828L49.2908 58.048C49.3548 57.896 49.4428 57.78 49.5548 57.7C49.6668 57.62 49.7908 57.584 49.9268 57.592ZM57.4345 60.64C57.4265 60.832 57.3505 60.988 57.2065 61.108C57.0625 61.228 56.8945 61.288 56.7025 61.288H52.7425C52.8385 61.76 53.0585 62.132 53.4025 62.404C53.7465 62.668 54.1345 62.8 54.5665 62.8C54.8945 62.8 55.1505 62.772 55.3345 62.716C55.5185 62.652 55.6625 62.588 55.7665 62.524C55.8785 62.452 55.9545 62.404 55.9945 62.38C56.1385 62.308 56.2745 62.272 56.4025 62.272C56.5705 62.272 56.7145 62.332 56.8345 62.452C56.9545 62.572 57.0145 62.712 57.0145 62.872C57.0145 63.088 56.9025 63.284 56.6785 63.46C56.4545 63.644 56.1545 63.8 55.7785 63.928C55.4025 64.056 55.0225 64.12 54.6385 64.12C53.9665 64.12 53.3785 63.98 52.8745 63.7C52.3785 63.42 51.9945 63.036 51.7225 62.548C51.4505 62.052 51.3145 61.496 51.3145 60.88C51.3145 60.192 51.4585 59.588 51.7465 59.068C52.0345 58.548 52.4145 58.152 52.8865 57.88C53.3585 57.6 53.8625 57.46 54.3985 57.46C54.9265 57.46 55.4225 57.604 55.8865 57.892C56.3585 58.18 56.7345 58.568 57.0145 59.056C57.2945 59.544 57.4345 60.072 57.4345 60.64ZM54.3985 58.78C53.4705 58.78 52.9225 59.216 52.7545 60.088H55.8985V60.004C55.8665 59.668 55.7025 59.38 55.4065 59.14C55.1105 58.9 54.7745 58.78 54.3985 58.78ZM61.9715 57.46C62.2115 57.46 62.4115 57.528 62.5715 57.664C62.7395 57.8 62.8235 57.96 62.8235 58.144C62.8235 58.392 62.7595 58.58 62.6315 58.708C62.5035 58.828 62.3515 58.888 62.1755 58.888C62.0555 58.888 61.9195 58.86 61.7675 58.804C61.7435 58.796 61.6875 58.78 61.5995 58.756C61.5195 58.732 61.4315 58.72 61.3355 58.72C61.1275 58.72 60.9275 58.784 60.7355 58.912C60.5435 59.04 60.3835 59.236 60.2555 59.5C60.1355 59.756 60.0755 60.064 60.0755 60.424V63.268C60.0755 63.476 60.0075 63.652 59.8715 63.796C59.7355 63.932 59.5635 64 59.3555 64C59.1475 64 58.9755 63.932 58.8395 63.796C58.7035 63.652 58.6355 63.476 58.6355 63.268V58.312C58.6355 58.104 58.7035 57.932 58.8395 57.796C58.9755 57.652 59.1475 57.58 59.3555 57.58C59.5635 57.58 59.7355 57.652 59.8715 57.796C60.0075 57.932 60.0755 58.104 60.0755 58.312V58.468C60.2595 58.14 60.5235 57.892 60.8675 57.724C61.2115 57.548 61.5795 57.46 61.9715 57.46ZM68.6026 57.58C68.8106 57.58 68.9826 57.652 69.1186 57.796C69.2546 57.932 69.3226 58.104 69.3226 58.312V63.412C69.3226 64.452 69.0426 65.208 68.4826 65.68C67.9226 66.16 67.1746 66.4 66.2386 66.4C65.9666 66.4 65.6866 66.376 65.3986 66.328C65.1186 66.288 64.8906 66.232 64.7146 66.16C64.3226 65.992 64.1266 65.76 64.1266 65.464C64.1266 65.408 64.1386 65.344 64.1626 65.272C64.2106 65.096 64.2906 64.96 64.4026 64.864C64.5226 64.776 64.6506 64.732 64.7866 64.732C64.8666 64.732 64.9426 64.744 65.0146 64.768C65.0706 64.792 65.1666 64.832 65.3026 64.888C65.4466 64.944 65.5946 64.988 65.7466 65.02C65.9066 65.06 66.0706 65.08 66.2386 65.08C66.8066 65.08 67.2226 64.956 67.4866 64.708C67.7586 64.468 67.8946 64.052 67.8946 63.46V63.34C67.4786 63.86 66.8306 64.12 65.9506 64.12C65.5346 64.12 65.1666 64.024 64.8466 63.832C64.5266 63.632 64.2786 63.36 64.1026 63.016C63.9266 62.664 63.8386 62.264 63.8386 61.816V58.312C63.8386 58.104 63.9066 57.932 64.0426 57.796C64.1786 57.652 64.3506 57.58 64.5586 57.58C64.7666 57.58 64.9386 57.652 65.0746 57.796C65.2106 57.932 65.2786 58.104 65.2786 58.312V61.384C65.2786 61.888 65.3866 62.252 65.6026 62.476C65.8266 62.692 66.1506 62.8 66.5746 62.8C66.9906 62.8 67.3106 62.68 67.5346 62.44C67.7666 62.192 67.8826 61.84 67.8826 61.384V58.312C67.8826 58.104 67.9506 57.932 68.0866 57.796C68.2226 57.652 68.3946 57.58 68.6026 57.58ZM73.9776 62.644C74.0896 62.644 74.1896 62.7 74.2776 62.812C74.3736 62.916 74.4216 63.056 74.4216 63.232C74.4216 63.448 74.3016 63.632 74.0616 63.784C73.8296 63.928 73.5656 64 73.2696 64C72.7736 64 72.3536 63.896 72.0096 63.688C71.6736 63.472 71.5056 63.02 71.5056 62.332V59.02H70.9536C70.7616 59.02 70.6016 58.956 70.4736 58.828C70.3456 58.7 70.2816 58.54 70.2816 58.348C70.2816 58.164 70.3456 58.012 70.4736 57.892C70.6016 57.764 70.7616 57.7 70.9536 57.7H71.5056V56.932C71.5056 56.724 71.5736 56.552 71.7096 56.416C71.8536 56.272 72.0296 56.2 72.2376 56.2C72.4376 56.2 72.6056 56.272 72.7416 56.416C72.8776 56.552 72.9456 56.724 72.9456 56.932V57.7H73.7976C73.9896 57.7 74.1496 57.764 74.2776 57.892C74.4056 58.02 74.4696 58.18 74.4696 58.372C74.4696 58.556 74.4056 58.712 74.2776 58.84C74.1496 58.96 73.9896 59.02 73.7976 59.02H72.9456V62.272C72.9456 62.44 72.9896 62.564 73.0776 62.644C73.1656 62.716 73.2856 62.752 73.4376 62.752C73.5016 62.752 73.5896 62.736 73.7016 62.704C73.7976 62.664 73.8896 62.644 73.9776 62.644ZM79.1637 57.46C79.9557 57.46 80.5037 57.704 80.8077 58.192C81.1117 58.672 81.2637 59.34 81.2637 60.196V63.268C81.2637 63.476 81.1957 63.652 81.0597 63.796C80.9237 63.932 80.7517 64 80.5437 64C80.3357 64 80.1637 63.932 80.0277 63.796C79.8917 63.652 79.8237 63.476 79.8237 63.268V60.196C79.8237 59.756 79.7357 59.412 79.5597 59.164C79.3917 58.908 79.0917 58.78 78.6597 58.78C78.2117 58.78 77.8597 58.916 77.6037 59.188C77.3557 59.452 77.2317 59.788 77.2317 60.196V63.268C77.2317 63.476 77.1637 63.652 77.0277 63.796C76.8917 63.932 76.7197 64 76.5117 64C76.3037 64 76.1317 63.932 75.9957 63.796C75.8597 63.652 75.7917 63.476 75.7917 63.268V55.852C75.7917 55.644 75.8597 55.472 75.9957 55.336C76.1317 55.192 76.3037 55.12 76.5117 55.12C76.7197 55.12 76.8917 55.192 77.0277 55.336C77.1637 55.472 77.2317 55.644 77.2317 55.852V58.504C77.4477 58.216 77.7197 57.972 78.0477 57.772C78.3837 57.564 78.7557 57.46 79.1637 57.46ZM84.179 63.268C84.179 63.476 84.111 63.652 83.975 63.796C83.839 63.932 83.667 64 83.459 64C83.251 64 83.079 63.932 82.943 63.796C82.807 63.652 82.739 63.476 82.739 63.268V58.312C82.739 58.104 82.807 57.932 82.943 57.796C83.079 57.652 83.251 57.58 83.459 57.58C83.667 57.58 83.839 57.652 83.975 57.796C84.111 57.932 84.179 58.104 84.179 58.312V63.268ZM83.447 56.8C83.175 56.8 82.983 56.756 82.871 56.668C82.759 56.58 82.703 56.424 82.703 56.2V55.972C82.703 55.748 82.763 55.592 82.883 55.504C83.003 55.416 83.195 55.372 83.459 55.372C83.739 55.372 83.935 55.416 84.047 55.504C84.159 55.592 84.215 55.748 84.215 55.972V56.2C84.215 56.432 84.155 56.592 84.035 56.68C83.923 56.76 83.727 56.8 83.447 56.8ZM89.0909 57.46C89.9069 57.46 90.4709 57.704 90.7829 58.192C91.0949 58.672 91.2509 59.34 91.2509 60.196V63.268C91.2509 63.476 91.1829 63.652 91.0469 63.796C90.9109 63.932 90.7389 64 90.5309 64C90.3229 64 90.1509 63.932 90.0149 63.796C89.8789 63.652 89.8109 63.476 89.8109 63.268V60.196C89.8109 59.756 89.7189 59.412 89.5349 59.164C89.3509 58.908 89.0349 58.78 88.5869 58.78C88.1229 58.78 87.7589 58.916 87.4949 59.188C87.2309 59.452 87.0989 59.788 87.0989 60.196V63.268C87.0989 63.476 87.0309 63.652 86.8949 63.796C86.7589 63.932 86.5869 64 86.3789 64C86.1709 64 85.9989 63.932 85.8629 63.796C85.7269 63.652 85.6589 63.476 85.6589 63.268V58.312C85.6589 58.104 85.7269 57.932 85.8629 57.796C85.9989 57.652 86.1709 57.58 86.3789 57.58C86.5869 57.58 86.7589 57.652 86.8949 57.796C87.0309 57.932 87.0989 58.104 87.0989 58.312V58.516C87.3149 58.228 87.5949 57.98 87.9389 57.772C88.2909 57.564 88.6749 57.46 89.0909 57.46ZM98.1233 57.46C98.3313 57.46 98.5033 57.528 98.6393 57.664C98.7753 57.8 98.8433 57.976 98.8433 58.192V63.532C98.8433 64.508 98.5393 65.228 97.9313 65.692C97.3313 66.164 96.5673 66.4 95.6393 66.4C95.3993 66.4 95.0673 66.36 94.6433 66.28C94.2273 66.2 93.9313 66.12 93.7553 66.04C93.3633 65.872 93.1673 65.64 93.1673 65.344C93.1673 65.288 93.1793 65.224 93.2033 65.152C93.2513 64.976 93.3313 64.84 93.4433 64.744C93.5633 64.656 93.6913 64.612 93.8273 64.612C93.9073 64.612 93.9833 64.624 94.0553 64.648C94.0873 64.656 94.2833 64.728 94.6433 64.864C95.0113 65.008 95.3433 65.08 95.6393 65.08C96.2313 65.08 96.6713 64.96 96.9593 64.72C97.2553 64.488 97.4033 64.156 97.4033 63.724V63.148C97.2273 63.396 96.9593 63.62 96.5993 63.82C96.2473 64.02 95.8673 64.12 95.4593 64.12C94.8993 64.12 94.3873 63.98 93.9233 63.7C93.4673 63.412 93.1073 63.016 92.8433 62.512C92.5793 62.008 92.4473 61.436 92.4473 60.796C92.4473 60.156 92.5753 59.584 92.8313 59.08C93.0953 58.568 93.4513 58.172 93.8993 57.892C94.3553 57.604 94.8593 57.46 95.4113 57.46C95.8193 57.46 96.1993 57.544 96.5513 57.712C96.9033 57.88 97.1873 58.084 97.4033 58.324V58.192C97.4033 57.984 97.4713 57.812 97.6073 57.676C97.7433 57.532 97.9153 57.46 98.1233 57.46ZM95.6393 62.8C96.1753 62.8 96.6113 62.612 96.9473 62.236C97.2913 61.852 97.4633 61.372 97.4633 60.796C97.4633 60.22 97.2913 59.74 96.9473 59.356C96.6113 58.972 96.1753 58.78 95.6393 58.78C95.1033 58.78 94.6673 58.972 94.3313 59.356C93.9953 59.74 93.8273 60.22 93.8273 60.796C93.8273 61.372 93.9953 61.852 94.3313 62.236C94.6673 62.612 95.1033 62.8 95.6393 62.8ZM106.86 62.644C106.972 62.644 107.072 62.7 107.16 62.812C107.256 62.916 107.304 63.056 107.304 63.232C107.304 63.448 107.184 63.632 106.944 63.784C106.712 63.928 106.448 64 106.152 64C105.656 64 105.236 63.896 104.892 63.688C104.556 63.472 104.388 63.02 104.388 62.332V59.02H103.836C103.644 59.02 103.484 58.956 103.356 58.828C103.228 58.7 103.164 58.54 103.164 58.348C103.164 58.164 103.228 58.012 103.356 57.892C103.484 57.764 103.644 57.7 103.836 57.7H104.388V56.932C104.388 56.724 104.456 56.552 104.592 56.416C104.736 56.272 104.912 56.2 105.12 56.2C105.32 56.2 105.488 56.272 105.624 56.416C105.76 56.552 105.828 56.724 105.828 56.932V57.7H106.68C106.872 57.7 107.032 57.764 107.16 57.892C107.288 58.02 107.352 58.18 107.352 58.372C107.352 58.556 107.288 58.712 107.16 58.84C107.032 58.96 106.872 59.02 106.68 59.02H105.828V62.272C105.828 62.44 105.872 62.564 105.96 62.644C106.048 62.716 106.168 62.752 106.32 62.752C106.384 62.752 106.472 62.736 106.584 62.704C106.68 62.664 106.772 62.644 106.86 62.644ZM114.784 60.796C114.784 61.436 114.64 62.012 114.352 62.524C114.064 63.028 113.668 63.42 113.164 63.7C112.668 63.98 112.12 64.12 111.52 64.12C110.912 64.12 110.36 63.98 109.864 63.7C109.368 63.42 108.976 63.028 108.688 62.524C108.4 62.012 108.256 61.436 108.256 60.796C108.256 60.156 108.4 59.584 108.688 59.08C108.976 58.568 109.368 58.172 109.864 57.892C110.36 57.604 110.912 57.46 111.52 57.46C112.12 57.46 112.668 57.604 113.164 57.892C113.668 58.172 114.064 58.568 114.352 59.08C114.64 59.584 114.784 60.156 114.784 60.796ZM113.344 60.796C113.344 60.404 113.26 60.056 113.092 59.752C112.932 59.44 112.712 59.2 112.432 59.032C112.16 58.864 111.856 58.78 111.52 58.78C111.184 58.78 110.876 58.864 110.596 59.032C110.324 59.2 110.104 59.44 109.936 59.752C109.776 60.056 109.696 60.404 109.696 60.796C109.696 61.188 109.776 61.536 109.936 61.84C110.104 62.144 110.324 62.38 110.596 62.548C110.876 62.716 111.184 62.8 111.52 62.8C111.856 62.8 112.16 62.716 112.432 62.548C112.712 62.38 112.932 62.144 113.092 61.84C113.26 61.536 113.344 61.188 113.344 60.796ZM122.446 62.644C122.558 62.644 122.658 62.7 122.746 62.812C122.842 62.916 122.89 63.056 122.89 63.232C122.89 63.448 122.77 63.632 122.53 63.784C122.298 63.928 122.034 64 121.738 64C121.242 64 120.822 63.896 120.478 63.688C120.142 63.472 119.974 63.02 119.974 62.332V59.02H119.422C119.23 59.02 119.07 58.956 118.942 58.828C118.814 58.7 118.75 58.54 118.75 58.348C118.75 58.164 118.814 58.012 118.942 57.892C119.07 57.764 119.23 57.7 119.422 57.7H119.974V56.932C119.974 56.724 120.042 56.552 120.178 56.416C120.322 56.272 120.498 56.2 120.706 56.2C120.906 56.2 121.074 56.272 121.21 56.416C121.346 56.552 121.414 56.724 121.414 56.932V57.7H122.266C122.458 57.7 122.618 57.764 122.746 57.892C122.874 58.02 122.938 58.18 122.938 58.372C122.938 58.556 122.874 58.712 122.746 58.84C122.618 58.96 122.458 59.02 122.266 59.02H121.414V62.272C121.414 62.44 121.458 62.564 121.546 62.644C121.634 62.716 121.754 62.752 121.906 62.752C121.97 62.752 122.058 62.736 122.17 62.704C122.266 62.664 122.358 62.644 122.446 62.644ZM127.632 57.46C128.424 57.46 128.972 57.704 129.276 58.192C129.58 58.672 129.732 59.34 129.732 60.196V63.268C129.732 63.476 129.664 63.652 129.528 63.796C129.392 63.932 129.22 64 129.012 64C128.804 64 128.632 63.932 128.496 63.796C128.36 63.652 128.292 63.476 128.292 63.268V60.196C128.292 59.756 128.204 59.412 128.028 59.164C127.86 58.908 127.56 58.78 127.128 58.78C126.68 58.78 126.328 58.916 126.072 59.188C125.824 59.452 125.7 59.788 125.7 60.196V63.268C125.7 63.476 125.632 63.652 125.496 63.796C125.36 63.932 125.188 64 124.98 64C124.772 64 124.6 63.932 124.464 63.796C124.328 63.652 124.26 63.476 124.26 63.268V55.852C124.26 55.644 124.328 55.472 124.464 55.336C124.6 55.192 124.772 55.12 124.98 55.12C125.188 55.12 125.36 55.192 125.496 55.336C125.632 55.472 125.7 55.644 125.7 55.852V58.504C125.916 58.216 126.188 57.972 126.516 57.772C126.852 57.564 127.224 57.46 127.632 57.46ZM137.052 60.64C137.044 60.832 136.968 60.988 136.824 61.108C136.68 61.228 136.512 61.288 136.32 61.288H132.36C132.456 61.76 132.676 62.132 133.02 62.404C133.364 62.668 133.752 62.8 134.184 62.8C134.512 62.8 134.768 62.772 134.952 62.716C135.136 62.652 135.28 62.588 135.384 62.524C135.496 62.452 135.572 62.404 135.612 62.38C135.756 62.308 135.892 62.272 136.02 62.272C136.188 62.272 136.332 62.332 136.452 62.452C136.572 62.572 136.632 62.712 136.632 62.872C136.632 63.088 136.52 63.284 136.296 63.46C136.072 63.644 135.772 63.8 135.396 63.928C135.02 64.056 134.64 64.12 134.256 64.12C133.584 64.12 132.996 63.98 132.492 63.7C131.996 63.42 131.612 63.036 131.34 62.548C131.068 62.052 130.932 61.496 130.932 60.88C130.932 60.192 131.076 59.588 131.364 59.068C131.652 58.548 132.032 58.152 132.504 57.88C132.976 57.6 133.48 57.46 134.016 57.46C134.544 57.46 135.04 57.604 135.504 57.892C135.976 58.18 136.352 58.568 136.632 59.056C136.912 59.544 137.052 60.072 137.052 60.64ZM134.016 58.78C133.088 58.78 132.54 59.216 132.372 60.088H135.516V60.004C135.484 59.668 135.32 59.38 135.024 59.14C134.728 58.9 134.392 58.78 134.016 58.78ZM147.616 56.008C147.864 56.136 147.988 56.34 147.988 56.62C147.988 56.788 147.928 56.952 147.808 57.112C147.68 57.28 147.516 57.364 147.316 57.364C147.18 57.364 147.044 57.328 146.908 57.256C146.516 57.072 146.092 56.98 145.636 56.98C145.076 56.98 144.588 57.1 144.172 57.34C143.756 57.572 143.436 57.904 143.212 58.336C142.988 58.76 142.876 59.248 142.876 59.8C142.876 60.744 143.128 61.46 143.632 61.948C144.144 62.436 144.812 62.68 145.636 62.68C146.124 62.68 146.548 62.588 146.908 62.404C147.052 62.34 147.18 62.308 147.292 62.308C147.5 62.308 147.676 62.396 147.82 62.572C147.94 62.724 148 62.888 148 63.064C148 63.192 147.968 63.308 147.904 63.412C147.84 63.516 147.748 63.596 147.628 63.652C147.004 63.964 146.34 64.12 145.636 64.12C144.852 64.12 144.132 63.956 143.476 63.628C142.82 63.292 142.296 62.8 141.904 62.152C141.512 61.504 141.316 60.72 141.316 59.8C141.316 58.984 141.5 58.252 141.868 57.604C142.244 56.956 142.76 56.452 143.416 56.092C144.072 55.724 144.812 55.54 145.636 55.54C146.348 55.54 147.008 55.696 147.616 56.008ZM154.011 62.62C154.219 62.62 154.391 62.692 154.527 62.836C154.671 62.972 154.743 63.132 154.743 63.316C154.743 63.516 154.671 63.68 154.527 63.808C154.391 63.936 154.219 64 154.011 64H149.991C149.783 64 149.607 63.932 149.463 63.796C149.327 63.652 149.259 63.476 149.259 63.268V56.332C149.259 56.124 149.327 55.952 149.463 55.816C149.607 55.672 149.783 55.6 149.991 55.6H154.011C154.219 55.6 154.391 55.668 154.527 55.804C154.671 55.932 154.743 56.1 154.743 56.308C154.743 56.508 154.675 56.672 154.539 56.8C154.403 56.92 154.227 56.98 154.011 56.98H150.759V59.02H153.471C153.679 59.02 153.851 59.088 153.987 59.224C154.131 59.352 154.203 59.52 154.203 59.728C154.203 59.928 154.135 60.092 153.999 60.22C153.863 60.34 153.687 60.4 153.471 60.4H150.759V62.62H154.011ZM163.855 59.8C163.855 60.592 163.679 61.32 163.327 61.984C162.975 62.64 162.487 63.16 161.863 63.544C161.247 63.928 160.551 64.12 159.775 64.12C158.999 64.12 158.299 63.928 157.675 63.544C157.059 63.16 156.575 62.64 156.223 61.984C155.879 61.32 155.707 60.592 155.707 59.8C155.707 59.008 155.879 58.284 156.223 57.628C156.575 56.964 157.059 56.44 157.675 56.056C158.299 55.672 158.999 55.48 159.775 55.48C160.551 55.48 161.247 55.672 161.863 56.056C162.487 56.44 162.975 56.964 163.327 57.628C163.679 58.284 163.855 59.008 163.855 59.8ZM162.295 59.8C162.295 59.264 162.187 58.78 161.971 58.348C161.755 57.908 161.455 57.56 161.071 57.304C160.687 57.048 160.255 56.92 159.775 56.92C159.287 56.92 158.851 57.048 158.467 57.304C158.091 57.552 157.795 57.896 157.579 58.336C157.371 58.776 157.267 59.264 157.267 59.8C157.267 60.336 157.371 60.824 157.579 61.264C157.795 61.704 158.091 62.052 158.467 62.308C158.851 62.556 159.287 62.68 159.775 62.68C160.255 62.68 160.687 62.552 161.071 62.296C161.455 62.04 161.755 61.696 161.971 61.264C162.187 60.824 162.295 60.336 162.295 59.8Z" fill="white"/>
</svg>
