<svg width="622" height="377" viewBox="0 0 622 377" fill="none" xmlns="http://www.w3.org/2000/svg">
<g clip-path="url(#clip0)">
<path d="M612.302 1.04384e-08H179.823C178.176 0.0014993 176.597 0.657127 175.432 1.82297C174.267 2.98881 173.612 4.56958 173.611 6.2183V299.534C173.612 301.183 174.267 302.764 175.432 303.929C176.597 305.095 178.176 305.751 179.823 305.752H612.302C613.2 305.752 614.088 305.557 614.904 305.181C615.719 304.804 616.443 304.254 617.026 303.57C617.075 303.517 617.121 303.459 617.162 303.399C617.532 302.945 617.833 302.438 618.052 301.894C618.365 301.147 618.525 300.344 618.522 299.534V6.21832C618.52 4.56843 617.864 2.98675 616.698 1.82077C615.532 0.65479 613.951 -9.5467e-05 612.302 1.04384e-08ZM616.748 299.534C616.749 300.402 616.493 301.25 616.014 301.973C615.588 302.609 615.01 303.129 614.333 303.485C613.705 303.809 613.009 303.978 612.302 303.977H179.823C178.646 303.975 177.518 303.507 176.686 302.674C175.854 301.841 175.386 300.712 175.384 299.534V6.21832C175.386 5.04049 175.854 3.91131 176.686 3.07846C177.518 2.24561 178.646 1.77709 179.823 1.77565H612.302C613.48 1.7755 614.61 2.24329 615.444 3.07627C616.277 3.90926 616.746 5.03933 616.748 6.21832V299.534Z" fill="#3F3D56"/>
<path d="M617.631 24.9226H174.496V26.7003H617.631V24.9226Z" fill="#3F3D56"/>
<path d="M189.593 18.6653C192.535 18.6653 194.921 16.2776 194.921 13.3323C194.921 10.387 192.535 7.99939 189.593 7.99939C186.65 7.99939 184.264 10.387 184.264 13.3323C184.264 16.2776 186.65 18.6653 189.593 18.6653Z" fill="#3F3D56"/>
<path d="M204.912 18.6653C207.854 18.6653 210.24 16.2776 210.24 13.3323C210.24 10.387 207.854 7.99939 204.912 7.99939C201.969 7.99939 199.583 10.387 199.583 13.3323C199.583 16.2776 201.969 18.6653 204.912 18.6653Z" fill="#3F3D56"/>
<path d="M220.23 18.6653C223.173 18.6653 225.559 16.2776 225.559 13.3323C225.559 10.387 223.173 7.99939 220.23 7.99939C217.288 7.99939 214.902 10.387 214.902 13.3323C214.902 16.2776 217.288 18.6653 220.23 18.6653Z" fill="#3F3D56"/>
<path d="M565.083 153.797H219.527C216.316 153.793 213.237 152.515 210.966 150.242C208.696 147.97 207.418 144.888 207.415 141.674V68.224C207.418 65.01 208.696 61.9286 210.966 59.6559C213.237 57.3832 216.316 56.1048 219.527 56.1012H565.083C568.294 56.1048 571.373 57.3832 573.643 59.6559C575.914 61.9286 577.191 65.01 577.195 68.224V141.674C577.191 144.888 575.914 147.97 573.643 150.242C571.373 152.515 568.294 153.793 565.083 153.797ZM219.527 57.5274C216.693 57.5306 213.977 58.6586 211.973 60.6639C209.97 62.6692 208.843 65.3881 208.84 68.224V141.674C208.843 144.51 209.97 147.229 211.973 149.234C213.977 151.24 216.693 152.368 219.527 152.371H565.083C567.916 152.368 570.633 151.24 572.636 149.234C574.64 147.229 575.767 144.51 575.77 141.674V68.224C575.767 65.3881 574.64 62.6692 572.636 60.6639C570.633 58.6586 567.916 57.5306 565.083 57.5274H219.527Z" fill="#F2F2F2"/>
<path d="M295.763 286.435H219.527C216.316 286.432 213.237 285.153 210.966 282.881C208.696 280.608 207.418 277.526 207.415 274.312V220.116C207.418 216.902 208.696 213.821 210.966 211.548C213.237 209.275 216.316 207.997 219.527 207.993H295.763C298.974 207.997 302.053 209.275 304.324 211.548C306.594 213.821 307.872 216.902 307.875 220.116V274.312C307.872 277.526 306.594 280.608 304.324 282.881C302.053 285.153 298.974 286.432 295.763 286.435ZM219.527 209.42C216.693 209.423 213.977 210.551 211.973 212.556C209.97 214.561 208.843 217.28 208.84 220.116V274.312C208.843 277.148 209.97 279.867 211.973 281.872C213.977 283.878 216.693 285.006 219.527 285.009H295.763C298.596 285.006 301.313 283.878 303.316 281.872C305.32 279.867 306.447 277.148 306.45 274.312V220.116C306.447 217.28 305.32 214.561 303.316 212.556C301.313 210.551 298.596 209.423 295.763 209.42H219.527Z" fill="#F2F2F2"/>
<path d="M565.083 286.435H488.847C485.635 286.432 482.557 285.153 480.286 282.881C478.015 280.608 476.738 277.526 476.734 274.312V220.116C476.738 216.902 478.015 213.821 480.286 211.548C482.557 209.275 485.635 207.997 488.847 207.993H565.083C568.294 207.997 571.372 209.275 573.643 211.548C575.914 213.821 577.191 216.902 577.195 220.116V274.312C577.191 277.526 575.914 280.608 573.643 282.881C571.372 285.153 568.294 286.432 565.083 286.435ZM488.847 209.42C486.013 209.423 483.297 210.551 481.293 212.556C479.289 214.561 478.163 217.28 478.159 220.116V274.312C478.163 277.148 479.289 279.867 481.293 281.872C483.297 283.878 486.013 285.006 488.847 285.009H565.083C567.916 285.006 570.632 283.878 572.636 281.872C574.64 279.867 575.767 277.148 575.77 274.312V220.116C575.767 217.28 574.64 214.561 572.636 212.556C570.632 210.551 567.916 209.423 565.083 209.42H488.847Z" fill="#F2F2F2"/>
<path d="M436.123 286.435H359.887C356.675 286.432 353.597 285.153 351.326 282.881C349.055 280.608 347.778 277.526 347.774 274.312V220.116C347.778 216.902 349.055 213.821 351.326 211.548C353.597 209.275 356.675 207.997 359.887 207.993H436.123C439.334 207.997 442.413 209.275 444.683 211.548C446.954 213.821 448.231 216.902 448.235 220.116V274.312C448.231 277.526 446.954 280.608 444.683 282.881C442.413 285.153 439.334 286.432 436.123 286.435ZM359.887 209.42C357.053 209.423 354.337 210.551 352.333 212.556C350.33 214.561 349.203 217.28 349.199 220.116V274.312C349.203 277.148 350.33 279.867 352.333 281.872C354.337 283.878 357.053 285.006 359.887 285.009H436.123C438.956 285.006 441.673 283.878 443.676 281.872C445.68 279.867 446.807 277.148 446.81 274.312V220.116C446.807 217.28 445.68 214.561 443.676 212.556C441.673 210.551 438.956 209.423 436.123 209.42H359.887Z" fill="#F2F2F2"/>
<path d="M211.654 59.4456L211.316 60.8307L576.313 150.211L576.651 148.826L211.654 59.4456Z" fill="#F2F2F2"/>
<path d="M572.947 59.4236L211.319 149.09L211.662 150.475L573.29 60.808L572.947 59.4236Z" fill="#F2F2F2"/>
<path d="M579.332 178.399H233.777C230.66 178.396 227.672 177.155 225.468 174.949C223.264 172.743 222.024 169.752 222.021 166.633V93.1827C222.024 90.0631 223.264 87.0724 225.468 84.8665C227.672 82.6607 230.66 81.4199 233.777 81.4164H579.332C582.449 81.42 585.437 82.6608 587.641 84.8666C589.845 87.0724 591.085 90.0632 591.088 93.1827V166.633C591.085 169.752 589.845 172.743 587.641 174.949C585.437 177.155 582.449 178.396 579.332 178.399Z" fill="white"/>
<path d="M352.553 211.213L351.676 212.338L442.993 283.633L443.869 282.509L352.553 211.213Z" fill="#F2F2F2"/>
<path d="M443.449 211.214L353.331 283.388L354.221 284.502L444.339 212.327L443.449 211.214Z" fill="#F2F2F2"/>
<path d="M212.193 211.214L211.316 212.338L302.632 283.634L303.509 282.509L212.193 211.214Z" fill="#F2F2F2"/>
<path d="M303.089 211.214L212.971 283.388L213.861 284.502L303.979 212.327L303.089 211.214Z" fill="#F2F2F2"/>
<path d="M481.513 211.213L480.637 212.337L571.953 283.633L572.83 282.508L481.513 211.213Z" fill="#F2F2F2"/>
<path d="M572.408 211.214L482.291 283.388L483.181 284.502L573.299 212.327L572.408 211.214Z" fill="#F2F2F2"/>
<path d="M446.81 338.136H370.574C367.457 338.132 364.469 336.891 362.265 334.685C360.061 332.48 358.821 329.489 358.818 326.369V272.173C358.821 269.053 360.061 266.063 362.265 263.857C364.469 261.651 367.457 260.41 370.574 260.407H446.81C449.927 260.41 452.915 261.651 455.119 263.857C457.323 266.063 458.562 269.053 458.566 272.173V326.369C458.562 329.489 457.323 332.48 455.119 334.685C452.915 336.891 449.927 338.132 446.81 338.136Z" fill="#FF5A5A"/>
<path d="M486.628 339.205H330.593C330.404 339.205 330.223 339.13 330.09 338.996C329.956 338.863 329.881 338.681 329.881 338.492C329.881 338.303 329.956 338.122 330.09 337.988C330.223 337.854 330.404 337.779 330.593 337.779H486.628C486.817 337.779 486.998 337.854 487.132 337.988C487.265 338.122 487.34 338.303 487.34 338.492C487.34 338.681 487.265 338.863 487.132 338.996C486.998 339.13 486.817 339.205 486.628 339.205Z" fill="#CCCCCC"/>
<path d="M156.747 377H0.712486C0.523523 377 0.342299 376.925 0.208682 376.791C0.0750647 376.657 0 376.476 0 376.287C0 376.098 0.0750647 375.916 0.208682 375.783C0.342299 375.649 0.523523 375.574 0.712486 375.574H156.747C156.936 375.574 157.117 375.649 157.251 375.783C157.384 375.916 157.459 376.098 157.459 376.287C157.459 376.476 157.384 376.657 157.251 376.791C157.117 376.925 156.936 377 156.747 377Z" fill="#CCCCCC"/>
<path d="M418.633 295.349H398.683C397.172 295.349 395.722 294.748 394.653 293.678C393.584 292.608 392.984 291.157 392.984 289.644C392.984 288.131 393.584 286.68 394.653 285.61C395.722 284.54 397.172 283.939 398.683 283.939H418.633C420.145 283.939 421.595 284.54 422.663 285.61C423.732 286.68 424.333 288.131 424.333 289.644C424.333 291.157 423.732 292.608 422.663 293.678C421.595 294.748 420.145 295.349 418.633 295.349Z" fill="white"/>
<path d="M430.423 314.603H386.961C385.449 314.603 384 314.002 382.931 312.932C381.862 311.862 381.261 310.411 381.261 308.898C381.261 307.385 381.862 305.934 382.931 304.864C384 303.794 385.449 303.193 386.961 303.193H430.423C431.934 303.193 433.384 303.794 434.453 304.864C435.522 305.934 436.123 307.385 436.123 308.898C436.123 310.411 435.522 311.862 434.453 312.932C433.384 314.002 431.934 314.603 430.423 314.603Z" fill="white"/>
<path d="M307.875 296.775H231.639C228.522 296.772 225.534 295.531 223.33 293.325C221.126 291.119 219.887 288.129 219.883 285.009V230.813C219.887 227.693 221.126 224.702 223.33 222.497C225.534 220.291 228.522 219.05 231.639 219.046H307.875C310.992 219.05 313.98 220.291 316.184 222.497C318.388 224.702 319.628 227.693 319.631 230.813V285.009C319.628 288.129 318.388 291.119 316.184 293.325C313.98 295.531 310.992 296.772 307.875 296.775Z" fill="#FF5A5A"/>
<path d="M279.698 253.989H259.749C258.237 253.989 256.787 253.388 255.718 252.318C254.649 251.248 254.049 249.797 254.049 248.284C254.049 246.771 254.649 245.32 255.718 244.25C256.787 243.18 258.237 242.579 259.749 242.579H279.698C281.21 242.579 282.66 243.18 283.729 244.25C284.798 245.32 285.398 246.771 285.398 248.284C285.398 249.797 284.798 251.248 283.729 252.318C282.66 253.388 281.21 253.989 279.698 253.989Z" fill="white"/>
<path d="M291.488 273.243H248.026C246.515 273.243 245.065 272.642 243.996 271.572C242.927 270.502 242.326 269.051 242.326 267.538C242.326 266.025 242.927 264.574 243.996 263.504C245.065 262.434 246.515 261.833 248.026 261.833H291.488C293 261.833 294.449 262.434 295.518 263.504C296.587 264.574 297.188 266.025 297.188 267.538C297.188 269.051 296.587 270.502 295.518 271.572C294.449 272.642 293 273.243 291.488 273.243Z" fill="white"/>
<path d="M581.47 317.455H505.234C502.117 317.452 499.129 316.211 496.925 314.005C494.721 311.799 493.481 308.809 493.478 305.689V251.493C493.481 248.373 494.721 245.383 496.925 243.177C499.129 240.971 502.117 239.73 505.234 239.727H581.47C584.587 239.73 587.575 240.971 589.779 243.177C591.982 245.383 593.222 248.373 593.226 251.493V305.689C593.222 308.809 591.982 311.799 589.779 314.005C587.575 316.211 584.587 317.452 581.47 317.455Z" fill="#E6E6E6"/>
<path d="M553.293 274.669H533.343C531.832 274.669 530.382 274.068 529.313 272.998C528.244 271.928 527.643 270.477 527.643 268.964C527.643 267.451 528.244 266 529.313 264.93C530.382 263.86 531.832 263.259 533.343 263.259H553.293C554.805 263.259 556.254 263.86 557.323 264.93C558.392 266 558.993 267.451 558.993 268.964C558.993 270.477 558.392 271.928 557.323 272.998C556.254 274.068 554.805 274.669 553.293 274.669Z" fill="white"/>
<path d="M565.082 293.923H521.621C520.109 293.923 518.659 293.322 517.59 292.252C516.521 291.182 515.921 289.731 515.921 288.218C515.921 286.705 516.521 285.254 517.59 284.184C518.659 283.114 520.109 282.513 521.621 282.513H565.082C566.594 282.513 568.044 283.114 569.113 284.184C570.182 285.254 570.782 286.705 570.782 288.218C570.782 289.731 570.182 291.182 569.113 292.252C568.044 293.322 566.594 293.923 565.082 293.923Z" fill="white"/>
<path d="M214.704 247.169V238.426L181.012 234.267L181.013 247.171L214.704 247.169Z" fill="#D7AAB0"/>
<path d="M222.814 221.565L222.815 249.042L212.209 249.042L212.208 232.182C212.208 229.366 213.325 226.666 215.314 224.675C217.303 222.684 220.001 221.565 222.814 221.565Z" fill="#2F2E41"/>
<path d="M64.6616 367.196L73.3967 367.195L77.5519 333.474L64.6602 333.474L64.6616 367.196Z" fill="#D7AAB0"/>
<path d="M90.243 375.313L62.7904 375.314L62.7899 364.698L79.6358 364.697C82.4489 364.697 85.1468 365.815 87.136 367.806C89.1252 369.797 90.2429 372.497 90.243 375.313Z" fill="#2F2E41"/>
<path d="M75.4641 355.044C75.3603 355.044 75.2553 355.039 75.15 355.03L63.2531 354.038C62.7599 353.998 62.2801 353.857 61.8428 353.625C61.4054 353.394 61.0195 353.076 60.7083 352.691C60.3971 352.305 60.1672 351.861 60.0324 351.385C59.8976 350.908 59.8607 350.409 59.9239 349.918L66.098 301.855C66.1218 301.669 66.1219 301.48 66.0983 301.293L56.2908 223.828C56.2261 223.316 56.2701 222.796 56.4199 222.303C56.5696 221.809 56.8218 221.352 57.1599 220.963C57.4981 220.573 57.9145 220.26 58.382 220.043C58.8496 219.825 59.3577 219.709 59.8731 219.702L94.5662 219.209C94.743 219.209 94.9196 219.219 95.095 219.24L95.1898 219.267L101.863 222.157L198.877 232.851C199.758 232.968 200.568 233.401 201.156 234.069C201.743 234.738 202.068 235.597 202.071 236.488V248.989C202.071 249.507 201.962 250.018 201.75 250.49C201.539 250.962 201.23 251.383 200.844 251.727C200.458 252.071 200.004 252.33 199.511 252.485C199.019 252.641 198.498 252.691 197.985 252.631L141.94 246.093C141.656 246.059 141.369 246.081 141.094 246.158L96.7741 258.383C96.3702 258.495 96.0062 258.72 95.7242 259.03C95.4422 259.34 95.2536 259.724 95.1803 260.137L79.0636 352.012C78.9168 352.861 78.4752 353.631 77.8166 354.185C77.158 354.74 76.3249 355.044 75.4641 355.044Z" fill="#2F2E41"/>
<path d="M72.6212 149.025C85.8294 149.025 96.5368 138.308 96.5368 125.088C96.5368 111.869 85.8294 101.152 72.6212 101.152C59.413 101.152 48.7056 111.869 48.7056 125.088C48.7056 138.308 59.413 149.025 72.6212 149.025Z" fill="#2F2E41"/>
<path d="M64.2552 109.8C69.7207 109.8 74.1513 105.366 74.1513 99.8954C74.1513 94.4251 69.7207 89.9906 64.2552 89.9906C58.7897 89.9906 54.3591 94.4251 54.3591 99.8954C54.3591 105.366 58.7897 109.8 64.2552 109.8Z" fill="#2F2E41"/>
<path d="M51.0603 94.5303C51.0605 92.0821 51.9665 89.7206 53.6036 87.9014C55.2406 86.0823 57.4928 84.9344 59.9256 84.6791C59.5832 84.6435 59.2391 84.6256 58.8948 84.6255C56.2716 84.6278 53.7567 85.6723 51.9026 87.5296C50.0486 89.3868 49.0071 91.9049 49.0071 94.5303C49.0071 97.1558 50.0486 99.6738 51.9026 101.531C53.7567 103.388 56.2716 104.433 58.8948 104.435C59.2391 104.435 59.5832 104.417 59.9256 104.382C57.4928 104.126 55.2406 102.978 53.6036 101.159C51.9665 99.3401 51.0605 96.9786 51.0603 94.5303Z" fill="#2F2E41"/>
<path d="M75.4385 232.717C69.4977 232.717 62.8895 231.07 56.0101 226.48L55.8935 226.402L55.8612 226.266C55.7972 225.997 49.4678 199.184 49.3431 178.417C49.3047 174.77 50.1383 171.167 51.7743 167.908C53.4102 164.65 55.8011 161.83 58.7475 159.684C61.5794 157.561 64.8777 156.147 68.367 155.56C71.8563 154.973 75.4354 155.229 78.8053 156.309C79.2506 156.45 79.697 156.602 80.1447 156.764C84.8165 158.51 88.7871 161.741 91.4473 165.963C94.1074 170.185 95.3103 175.164 94.8713 180.135C93.9689 191.109 93.6073 211.094 101.323 221.652L101.504 221.9L101.287 222.115C101.138 222.264 90.4073 232.717 75.4385 232.717Z" fill="#CCCCCC"/>
<path d="M72.5529 150.222C82.2176 150.222 90.0523 142.38 90.0523 132.707C90.0523 123.034 82.2176 115.192 72.5529 115.192C62.8883 115.192 55.0535 123.034 55.0535 132.707C55.0535 142.38 62.8883 150.222 72.5529 150.222Z" fill="#D7AAB0"/>
<path d="M51.118 131.551C51.3692 132.569 51.3943 133.629 51.1917 134.658C50.989 135.686 50.5635 136.658 49.9451 137.504C49.3267 138.35 48.5305 139.05 47.6125 139.555C46.6946 140.06 45.6771 140.357 44.632 140.426L37.8799 164.996L29.1618 155.036L36.9103 133.23C36.9114 131.465 37.5593 129.762 38.7313 128.443C39.9032 127.124 41.5178 126.282 43.2691 126.075C45.0204 125.868 46.7866 126.311 48.2332 127.32C49.6798 128.33 50.7063 129.835 51.118 131.551Z" fill="#D7AAB0"/>
<path d="M24.5749 185.691C23.491 185.687 22.4239 185.423 21.4629 184.921C20.502 184.419 19.6752 183.694 19.0519 182.807C18.4286 181.919 18.0269 180.895 17.8806 179.82C17.7342 178.745 17.8473 177.65 18.2106 176.628L31.0468 140.53C31.3512 139.688 31.9585 138.99 32.7498 138.573C33.5411 138.156 34.4595 138.049 35.3254 138.273L44.6797 140.751C45.1611 140.879 45.6106 141.106 45.9992 141.418C46.3879 141.73 46.707 142.119 46.9363 142.562C47.1656 143.004 47.2998 143.49 47.3305 143.987C47.3611 144.485 47.2875 144.983 47.1143 145.451L38.8647 167.707L52.8576 163.252C54.0548 162.871 55.3179 162.742 56.5673 162.873C57.8167 163.005 59.0253 163.394 60.1172 164.016C61.209 164.638 62.1603 165.479 62.9111 166.488C63.662 167.496 64.1962 168.648 64.48 169.873C64.7639 171.098 64.7912 172.369 64.5604 173.605C64.3296 174.841 63.8455 176.015 63.1387 177.055C62.4319 178.094 61.5177 178.976 60.4537 179.645C59.3897 180.313 58.1989 180.754 56.9563 180.939L25.5958 185.615C25.2579 185.666 24.9167 185.691 24.5749 185.691Z" fill="#CCCCCC"/>
<path d="M75.4033 129.918C84.5124 129.918 91.8968 125.483 91.8968 120.013C91.8968 114.543 84.5124 110.108 75.4033 110.108C66.2941 110.108 58.9097 114.543 58.9097 120.013C58.9097 125.483 66.2941 129.918 75.4033 129.918Z" fill="#2F2E41"/>
<path d="M125.61 238.539C124.599 238.264 123.661 237.77 122.862 237.093C122.062 236.416 121.421 235.571 120.983 234.619C120.545 233.667 120.32 232.63 120.326 231.582C120.332 230.533 120.567 229.499 121.015 228.552L102.846 210.7L115.781 207.918L131.052 225.297C132.592 226.156 133.764 227.55 134.346 229.217C134.928 230.883 134.878 232.705 134.208 234.337C133.537 235.969 132.291 237.299 130.707 238.073C129.122 238.848 127.309 239.014 125.61 238.539Z" fill="#D7AAB0"/>
<path d="M117.223 228.827C116.736 228.828 116.256 228.722 115.815 228.515C115.375 228.308 114.985 228.006 114.675 227.631L94.8407 203.546L79.3165 173.706C78.8306 172.207 78.7108 170.612 78.9671 169.057C79.2234 167.501 79.8483 166.029 80.7895 164.765C81.6923 163.537 82.8778 162.545 84.2455 161.873C85.6132 161.202 87.1226 160.87 88.6456 160.907C89.4154 160.923 90.1819 161.011 90.9354 161.17C92.4766 161.516 93.907 162.243 95.0966 163.283C96.2862 164.323 97.1973 165.644 97.7474 167.126L110.898 198.049L126.659 217.948C127.197 218.63 127.444 219.497 127.348 220.362C127.252 221.226 126.82 222.017 126.145 222.565L119.287 228.1C118.702 228.572 117.974 228.828 117.223 228.827Z" fill="#CCCCCC"/>
<path d="M621.288 318.525H465.253C465.064 318.525 464.883 318.45 464.749 318.316C464.616 318.182 464.541 318.001 464.541 317.812C464.541 317.623 464.616 317.441 464.749 317.308C464.883 317.174 465.064 317.099 465.253 317.099H621.288C621.476 317.099 621.658 317.174 621.791 317.308C621.925 317.441 622 317.623 622 317.812C622 318.001 621.925 318.182 621.791 318.316C621.658 318.45 621.476 318.525 621.288 318.525Z" fill="#CCCCCC"/>
<path d="M484.052 177.141V178.043H331.793V177.099L332.613 175.938L380.884 107.732C381.107 107.422 381.401 107.169 381.741 106.995C382.081 106.821 382.457 106.73 382.839 106.73C383.221 106.73 383.598 106.821 383.938 106.995C384.278 107.169 384.572 107.422 384.795 107.732L417.163 153.468L440.205 121.197C440.429 120.888 440.722 120.637 441.062 120.464C441.401 120.291 441.776 120.201 442.157 120.201C442.538 120.201 442.914 120.291 443.253 120.464C443.592 120.637 443.886 120.888 444.11 121.197L483.232 175.987L484.052 177.141Z" fill="#FF5A5A"/>
<path d="M331.477 131.76C341.265 131.76 349.199 123.819 349.199 114.023C349.199 104.227 341.265 96.2853 331.477 96.2853C321.69 96.2853 313.756 104.227 313.756 114.023C313.756 123.819 321.69 131.76 331.477 131.76Z" fill="#FF5A5A"/>
<path d="M579.332 178.756H233.777C230.565 178.752 227.487 177.474 225.216 175.201C222.945 172.928 221.668 169.847 221.664 166.633V93.1828C221.668 89.9688 222.945 86.8874 225.216 84.6147C227.487 82.342 230.565 81.0636 233.777 81.06H579.332C582.543 81.0636 585.622 82.342 587.893 84.6147C590.164 86.8874 591.441 89.9688 591.444 93.1828V166.633C591.441 169.847 590.164 172.928 587.893 175.201C585.622 177.474 582.543 178.752 579.332 178.756ZM233.777 82.4862C230.943 82.4894 228.227 83.6174 226.223 85.6227C224.22 87.628 223.093 90.3469 223.089 93.1828V166.633C223.093 169.469 224.22 172.188 226.223 174.193C228.227 176.198 230.943 177.326 233.777 177.33H579.332C582.166 177.326 584.882 176.198 586.886 174.193C588.889 172.188 590.016 169.469 590.019 166.633V93.1828C590.016 90.3469 588.889 87.628 586.886 85.6227C584.882 83.6174 582.166 82.4894 579.332 82.4862H233.777Z" fill="#3F3D56"/>
</g>
<defs>
<clipPath id="clip0">
<rect width="622" height="377" fill="white"/>
</clipPath>
</defs>
</svg>
