<svg width="283" height="163" viewBox="0 0 283 163" fill="none" xmlns="http://www.w3.org/2000/svg">
<path fill-rule="evenodd" clip-rule="evenodd" d="M105.19 20.0116L110.842 54.2114C111.619 57.3252 113.173 58.8821 117.057 58.8821H169.891C171.445 58.8821 173.776 58.1038 174.553 54.2114C174.655 53.7019 174.894 50.8502 175.227 46.9002C175.89 39.0153 176.921 26.7541 177.957 20.0116C178.639 15.5694 176.403 11.677 170.964 13.7309L157.46 22.2942L147.359 2.05357C145.805 -0.281562 141.92 -1.0601 139.589 2.05393C137.018 5.48897 133.314 11.8351 130.413 16.806C129.106 19.0448 127.962 21.0049 127.158 22.2942L112.396 13.7309C107.734 11.3956 103.849 14.5094 105.19 20.0116ZM109.584 17.9049L115.023 54.4929H169.492L173.295 17.9049L154.648 28.8034L142.993 4.67084L128.231 28.8034L109.584 17.9049Z" fill="#535353" fill-opacity="0.7"/>
<path d="M24.5983 119.072L55.0173 155.402C56.5168 156.852 58.0163 157.94 59.5158 158.665C61.0868 159.39 62.979 159.789 65.1926 159.861V160.949H60.5869C59.8728 160.949 58.8375 160.913 57.4808 160.84C56.1955 160.695 54.7674 160.441 53.1964 160.079C51.6969 159.644 50.1617 159.027 48.5907 158.23C47.0912 157.359 45.7344 156.199 44.5206 154.749C44.5206 154.749 43.8779 153.988 42.5926 152.465C41.3787 150.942 39.7721 148.984 37.7727 146.591C35.8447 144.198 33.774 141.66 31.5604 138.977C29.4182 136.222 27.3475 133.647 25.348 131.254C23.4201 128.861 21.8134 126.903 20.5281 125.381C19.3143 123.858 18.7073 123.096 18.7073 123.096L24.5983 119.072ZM50.7329 91.1175L23.5272 123.096H18.7073L43.985 90.8999L50.7329 91.1175ZM62.9433 84.8087V85.7877H62.5149C60.1585 85.7877 57.9449 86.259 55.8741 87.2017C53.8747 88.1444 52.161 89.4496 50.7329 91.1175L43.985 90.8999C44.9133 89.6672 45.0561 88.507 44.4135 87.4192C43.8422 86.3315 42.8425 85.7877 41.4144 85.7877H40.3433V84.8087H62.5149H62.9433ZM15.2798 84.8087V160.949H8.31771V84.8087H15.2798ZM8.63904 153.009V160.949H0.0703125V159.861C0.0703125 159.861 0.284531 159.861 0.712967 159.861C1.21281 159.861 1.46273 159.861 1.46273 159.861C3.31928 159.861 4.89022 159.209 6.17553 157.903C7.53225 156.526 8.2463 154.894 8.31771 153.009H8.63904ZM8.63904 92.7491H8.31771C8.2463 90.8637 7.53225 89.2684 6.17553 87.9631C4.89022 86.5853 3.31928 85.8964 1.46273 85.8964C1.46273 85.8964 1.21281 85.8964 0.712967 85.8964C0.284531 85.8964 0.0703125 85.8964 0.0703125 85.8964V84.8087H8.63904V92.7491ZM14.9585 153.009H15.2798C15.3512 154.894 16.0296 156.526 17.3149 157.903C18.6716 159.209 20.2783 159.861 22.1348 159.861C22.1348 159.861 22.349 159.861 22.7774 159.861C23.2059 159.861 23.4557 159.861 23.5272 159.861V160.949H14.9585V153.009ZM14.9585 92.7491V84.8087H23.5272V85.8964C23.4557 85.8964 23.2059 85.8964 22.7774 85.8964C22.349 85.8964 22.1348 85.8964 22.1348 85.8964C20.2783 85.8964 18.6716 86.5853 17.3149 87.9631C16.0296 89.2684 15.3512 90.8637 15.2798 92.7491H14.9585ZM106.746 83.2859C114.386 83.2859 121.099 84.9537 126.883 88.2894C132.666 91.5526 137.165 96.1572 140.378 102.103C143.663 108.05 145.305 114.975 145.305 122.879C145.305 130.783 143.663 137.708 140.378 143.654C137.165 149.6 132.666 154.241 126.883 157.577C121.099 160.84 114.386 162.472 106.746 162.472C99.1768 162.472 92.5004 160.84 86.7165 157.577C80.9327 154.241 76.3983 149.6 73.1137 143.654C69.9004 137.708 68.2938 130.783 68.2938 122.879C68.2938 114.975 69.9004 108.05 73.1137 102.103C76.3983 96.1572 80.9327 91.5526 86.7165 88.2894C92.5004 84.9537 99.1768 83.2859 106.746 83.2859ZM106.746 159.209C112.815 159.209 118.099 157.686 122.598 154.64C127.169 151.595 130.703 147.352 133.202 141.914C135.773 136.475 137.058 130.13 137.058 122.879C137.058 115.627 135.773 109.282 133.202 103.844C130.703 98.4052 127.169 94.1631 122.598 91.1175C118.099 88.0719 112.815 86.5491 106.746 86.5491C100.748 86.5491 95.4637 88.0719 90.8938 91.1175C86.3952 94.1631 82.8606 98.4052 80.29 103.844C77.7907 109.282 76.5412 115.627 76.5412 122.879C76.5412 130.13 77.7907 136.475 80.29 141.914C82.8606 147.352 86.3952 151.595 90.8938 154.64C95.4637 157.686 100.748 159.209 106.746 159.209ZM154.57 85.4613H163.246L183.168 150.398L181.347 162.254L154.57 85.4613ZM202.555 83.0684L203.412 91.8789L184.561 150.181C184.561 150.181 184.382 150.833 184.025 152.138C183.669 153.371 183.311 154.93 182.954 156.816C182.597 158.629 182.383 160.441 182.311 162.254H181.347L179.42 152.574L201.591 83.0684H202.555ZM202.555 83.1771L225.048 147.244L222.692 162.254L198.913 94.9245L202.555 83.1771ZM246.041 85.4613L226.012 150.181C226.012 150.181 225.833 150.833 225.476 152.138C225.12 153.444 224.727 155.039 224.298 156.924C223.942 158.737 223.727 160.514 223.656 162.254H222.692L221.406 151.486L240.043 85.4613H246.041ZM238.008 92.6403C238.579 90.4648 238.401 88.797 237.473 87.6368C236.544 86.4765 235.366 85.8964 233.938 85.8964H232.974V84.8087H254.075V85.8964C254.075 85.8964 253.932 85.8964 253.646 85.8964C253.36 85.8964 253.218 85.8964 253.218 85.8964C251.576 85.8964 249.79 86.4403 247.862 87.528C245.934 88.5432 244.577 90.2473 243.792 92.6403H238.008ZM165.495 92.6403H157.034C156.177 90.2473 154.784 88.5432 152.856 87.528C151 86.4403 149.25 85.8964 147.608 85.8964C147.608 85.8964 147.466 85.8964 147.18 85.8964C146.894 85.8964 146.751 85.8964 146.751 85.8964V84.8087H170.529V85.8964H169.565C168.208 85.8964 166.995 86.4765 165.924 87.6368C164.925 88.797 164.781 90.4648 165.495 92.6403ZM274.684 84.8087V160.949H267.722V84.8087H274.684ZM268.044 153.009V160.949H259.475V159.861C259.475 159.861 259.689 159.861 260.118 159.861C260.618 159.861 260.867 159.861 260.867 159.861C262.724 159.861 264.295 159.209 265.58 157.903C266.937 156.526 267.651 154.894 267.722 153.009H268.044ZM268.044 92.7491H267.722C267.651 90.8637 266.937 89.2684 265.58 87.9631C264.295 86.5853 262.724 85.8964 260.867 85.8964C260.867 85.8964 260.618 85.8964 260.118 85.8964C259.689 85.8964 259.475 85.8964 259.475 85.8964V84.8087H268.044V92.7491ZM274.363 153.009H274.684C274.756 154.894 275.434 156.526 276.72 157.903C278.077 159.209 279.683 159.861 281.539 159.861C281.539 159.861 281.754 159.861 282.182 159.861C282.611 159.861 282.86 159.861 282.932 159.861V160.949H274.363V153.009ZM274.363 92.7491V84.8087H282.932V85.8964C282.86 85.8964 282.611 85.8964 282.182 85.8964C281.754 85.8964 281.539 85.8964 281.539 85.8964C279.683 85.8964 278.077 86.5853 276.72 87.9631C275.434 89.2684 274.756 90.8637 274.684 92.7491H274.363Z" fill="#535353" fill-opacity="0.7"/>
</svg>
